<?xml version="1.0" encoding="utf-8" standalone="no"?>
<!DOCTYPE svg PUBLIC "-//W3C//DTD SVG 1.1//EN"
  "http://www.w3.org/Graphics/SVG/1.1/DTD/svg11.dtd">
<svg xmlns:xlink="http://www.w3.org/1999/xlink" width="342.630925pt" height="376.179925pt" viewBox="0 0 342.630925 376.179925" xmlns="http://www.w3.org/2000/svg" version="1.1">
 <metadata>
  <rdf:RDF xmlns:dc="http://purl.org/dc/elements/1.1/" xmlns:cc="http://creativecommons.org/ns#" xmlns:rdf="http://www.w3.org/1999/02/22-rdf-syntax-ns#">
   <cc:Work>
    <dc:type rdf:resource="http://purl.org/dc/dcmitype/StillImage"/>
    <dc:format>image/svg+xml</dc:format>
    <dc:creator>
     <cc:Agent>
      <dc:title>Matplotlib v3.6.3, https://matplotlib.org/</dc:title>
     </cc:Agent>
    </dc:creator>
   </cc:Work>
  </rdf:RDF>
 </metadata>
 <defs>
  <style type="text/css">*{stroke-linejoin: round; stroke-linecap: butt}</style>
 </defs>
 <g id="figure_1">
  <g id="patch_1">
   <path d="M 0 376.179925 
L 342.630925 376.179925 
L 342.630925 0 
L 0 0 
L 0 376.179925 
z
" style="fill: none; opacity: 0"/>
  </g>
  <g id="axes_1">
   <g id="patch_2">
    <path d="M 97.509107 34.180901 
Q 122.510016 34.180901 145.945677 34.180901 
" clip-path="url(#p089677fe16)" style="fill: none; stroke: #cdcdd5; stroke-width: 1.4; stroke-linecap: round"/>
    <path d="M 141.545677 31.980901 
L 145.945677 34.180901 
L 141.545677 36.380901 
L 141.545677 31.980901 
z
" clip-path="url(#p089677fe16)" style="fill: #cdcdd5; stroke: #cdcdd5; stroke-width: 1.4; stroke-linecap: round"/>
   </g>
   <g id="patch_3">
    <path d="M 211.590925 34.180901 
Q 236.591834 34.180901 260.027496 34.180901 
" clip-path="url(#p089677fe16)" style="fill: none; stroke: #cdcdd5; stroke-width: 1.4; stroke-linecap: round"/>
    <path d="M 255.627496 31.980901 
L 260.027496 34.180901 
L 255.627496 36.380901 
L 255.627496 31.980901 
z
" clip-path="url(#p089677fe16)" style="fill: #cdcdd5; stroke: #cdcdd5; stroke-width: 1.4; stroke-linecap: round"/>
   </g>
   <g id="line2d_1">
    <path d="M 97.509107 62.047944 
L 97.509107 34.180901 
" clip-path="url(#p089677fe16)" style="fill: none; stroke-dasharray: 0.6,0.99; stroke-dashoffset: 0; stroke: #cdcdd5; stroke-width: 0.6"/>
   </g>
   <g id="line2d_2">
    <path d="M 147.510925 62.047944 
L 147.510925 34.180901 
" clip-path="url(#p089677fe16)" style="fill: none; stroke-dasharray: 0.6,0.99; stroke-dashoffset: 0; stroke: #cdcdd5; stroke-width: 0.6"/>
   </g>
   <g id="line2d_3">
    <path d="M 211.590925 62.047944 
L 211.590925 34.180901 
" clip-path="url(#p089677fe16)" style="fill: none; stroke-dasharray: 0.6,0.99; stroke-dashoffset: 0; stroke: #cdcdd5; stroke-width: 0.6"/>
   </g>
   <g id="line2d_4">
    <path d="M 261.592743 62.047944 
L 261.592743 34.180901 
" clip-path="url(#p089677fe16)" style="fill: none; stroke-dasharray: 0.6,0.99; stroke-dashoffset: 0; stroke: #cdcdd5; stroke-width: 0.6"/>
   </g>
   <g id="patch_4">
    <path d="M 97.509107 70.320972 
Q 122.510016 70.320972 145.945677 70.320972 
" clip-path="url(#p089677fe16)" style="fill: none; stroke: #d65749; stroke-width: 1.4; stroke-linecap: round"/>
    <path d="M 141.545677 68.120972 
L 145.945677 70.320972 
L 141.545677 72.520972 
L 141.545677 68.120972 
z
" clip-path="url(#p089677fe16)" style="fill: #d65749; stroke: #d65749; stroke-width: 1.4; stroke-linecap: round"/>
   </g>
   <g id="patch_5">
    <path d="M 147.510925 80.771113 
Q 122.510016 80.771113 99.074354 80.771113 
" clip-path="url(#p089677fe16)" style="fill: none; stroke: #3984da; stroke-width: 1.4; stroke-linecap: round"/>
    <path d="M 103.474354 82.971113 
L 99.074354 80.771113 
L 103.474354 78.571113 
L 103.474354 82.971113 
z
" clip-path="url(#p089677fe16)" style="fill: #3984da; stroke: #3984da; stroke-width: 1.4; stroke-linecap: round"/>
   </g>
   <g id="patch_6">
    <path d="M 211.590925 70.320972 
Q 236.591834 70.320972 260.027496 70.320972 
" clip-path="url(#p089677fe16)" style="fill: none; stroke: #d65749; stroke-width: 1.4; stroke-linecap: round"/>
    <path d="M 255.627496 68.120972 
L 260.027496 70.320972 
L 255.627496 72.520972 
L 255.627496 68.120972 
z
" clip-path="url(#p089677fe16)" style="fill: #d65749; stroke: #d65749; stroke-width: 1.4; stroke-linecap: round"/>
   </g>
   <g id="patch_7">
    <path d="M 261.592743 80.771113 
Q 236.591834 80.771113 213.156173 80.771113 
" clip-path="url(#p089677fe16)" style="fill: none; stroke: #3984da; stroke-width: 1.4; stroke-linecap: round"/>
    <path d="M 217.556173 82.971113 
L 213.156173 80.771113 
L 217.556173 78.571113 
L 217.556173 82.971113 
z
" clip-path="url(#p089677fe16)" style="fill: #3984da; stroke: #3984da; stroke-width: 1.4; stroke-linecap: round"/>
   </g>
   <g id="patch_8">
    <path d="M 172.269107 89.914986 
Q 172.269107 110.597556 172.269107 129.714879 
" clip-path="url(#p089677fe16)" style="fill: none; stroke: #cdcdd5; stroke-width: 1.4; stroke-linecap: round"/>
    <path d="M 174.469107 125.314879 
L 172.269107 129.714879 
L 170.069107 125.314879 
L 174.469107 125.314879 
z
" clip-path="url(#p089677fe16)" style="fill: #cdcdd5; stroke: #cdcdd5; stroke-width: 1.4; stroke-linecap: round"/>
   </g>
   <g id="patch_9">
    <path d="M 186.832743 131.280127 
Q 186.832743 110.597556 186.832743 91.256627 
" clip-path="url(#p089677fe16)" style="fill: none; stroke-dasharray: 4.44,1.92; stroke-dashoffset: 0; stroke: #797984; stroke-width: 1.2; stroke-linecap: round"/>
    <path d="M 184.632743 95.656627 
L 186.832743 91.256627 
L 189.032743 95.656627 
L 184.632743 95.656627 
z
" clip-path="url(#p089677fe16)" style="fill: #797984; stroke-dasharray: 4.44,1.92; stroke-dashoffset: 0; stroke: #797984; stroke-width: 1.2; stroke-linecap: round"/>
   </g>
   <g id="patch_10">
    <path d="M 33.429107 80.771113 
Q 27.603652 80.771113 23.119839 80.771113 
" clip-path="url(#p089677fe16)" style="fill: none; stroke-dasharray: 4.44,1.92; stroke-dashoffset: 0; stroke: #3984da; stroke-width: 1.2; stroke-linecap: round"/>
    <path d="M 27.519839 82.971113 
L 23.119839 80.771113 
L 27.519839 78.571113 
L 27.519839 82.971113 
z
" clip-path="url(#p089677fe16)" style="fill: #3984da; stroke-dasharray: 4.44,1.92; stroke-dashoffset: 0; stroke: #3984da; stroke-width: 1.2; stroke-linecap: round"/>
   </g>
   <g id="patch_11">
    <path d="M 35.128198 90.785831 
L 95.810016 90.785831 
Q 97.751834 90.785831 97.751834 89.044141 
L 97.751834 62.047944 
Q 97.751834 60.306254 95.810016 60.306254 
L 35.128198 60.306254 
Q 33.18638 60.306254 33.18638 62.047944 
L 33.18638 89.044141 
Q 33.18638 90.785831 35.128198 90.785831 
L 35.128198 90.785831 
z
" clip-path="url(#p089677fe16)" style="fill: none; stroke: #cdcdd5; stroke-width: 1.2; stroke-linejoin: miter"/>
   </g>
   <g id="patch_12">
    <path d="M 149.210016 90.785831 
L 209.891834 90.785831 
Q 211.833652 90.785831 211.833652 89.044141 
L 211.833652 62.047944 
Q 211.833652 60.306254 209.891834 60.306254 
L 149.210016 60.306254 
Q 147.268198 60.306254 147.268198 62.047944 
L 147.268198 89.044141 
Q 147.268198 90.785831 149.210016 90.785831 
L 149.210016 90.785831 
z
" clip-path="url(#p089677fe16)" style="fill: none; stroke: #cdcdd5; stroke-width: 1.2; stroke-linejoin: miter"/>
   </g>
   <g id="patch_13">
    <path d="M 263.291834 90.785831 
L 323.973652 90.785831 
Q 325.91547 90.785831 325.91547 89.044141 
L 325.91547 62.047944 
Q 325.91547 60.306254 323.973652 60.306254 
L 263.291834 60.306254 
Q 261.350016 60.306254 261.350016 62.047944 
L 261.350016 89.044141 
Q 261.350016 90.785831 263.291834 90.785831 
L 263.291834 90.785831 
z
" clip-path="url(#p089677fe16)" style="fill: none; stroke: #cdcdd5; stroke-width: 1.2; stroke-linejoin: miter"/>
   </g>
   <g id="patch_14">
    <path d="M 149.210016 155.663789 
L 209.891834 155.663789 
Q 211.833652 155.663789 211.833652 153.922099 
L 211.833652 132.150972 
Q 211.833652 130.409282 209.891834 130.409282 
L 149.210016 130.409282 
Q 147.268198 130.409282 147.268198 132.150972 
L 147.268198 153.922099 
Q 147.268198 155.663789 149.210016 155.663789 
L 149.210016 155.663789 
z
" clip-path="url(#p089677fe16)" style="fill: none; stroke: #cdcdd5; stroke-width: 1.2; stroke-linejoin: miter"/>
   </g>
   <g id="text_1">
    <!-- sales $y^{H,v}_t$ -->
    <g style="fill: #cdcdd5" transform="translate(131.990561 107.675525) scale(0.0864 -0.0864)">
     <defs>
      <path id="Newsreader16pt-Regular-73" d="M 1546 3066 
Q 1754 3066 1942 3030 
Q 2131 2995 2368 2906 
L 2442 2102 
L 2154 2102 
L 1814 2890 
L 2176 2579 
Q 2000 2666 1833 2709 
Q 1667 2752 1514 2752 
Q 1190 2752 1020 2645 
Q 851 2538 851 2336 
Q 851 2147 961 2046 
Q 1072 1946 1254 1888 
Q 1437 1830 1648 1776 
Q 1808 1738 1966 1682 
Q 2125 1626 2257 1530 
Q 2390 1434 2470 1277 
Q 2550 1120 2550 880 
Q 2550 576 2398 366 
Q 2246 157 1960 49 
Q 1674 -58 1270 -58 
Q 1050 -58 824 -22 
Q 598 13 426 83 
L 285 931 
L 589 931 
L 995 80 
L 605 374 
Q 723 326 830 300 
Q 938 275 1038 267 
Q 1139 259 1235 259 
Q 1635 259 1843 384 
Q 2051 509 2051 762 
Q 2051 928 1966 1025 
Q 1882 1123 1742 1179 
Q 1603 1235 1438 1273 
Q 1274 1312 1117 1357 
Q 909 1421 737 1513 
Q 566 1606 465 1774 
Q 365 1942 365 2221 
Q 365 2493 512 2681 
Q 659 2870 924 2968 
Q 1190 3066 1546 3066 
z
" transform="scale(0.015625)"/>
      <path id="Newsreader16pt-Regular-61" d="M 2406 1926 
L 2355 1603 
Q 1894 1523 1609 1441 
Q 1325 1360 1174 1270 
Q 1024 1181 969 1073 
Q 915 966 915 832 
Q 915 608 1052 491 
Q 1190 374 1430 374 
Q 1616 374 1768 449 
Q 1920 525 2009 653 
Q 2099 781 2099 938 
L 2099 2090 
Q 2099 2390 1961 2542 
Q 1824 2694 1485 2694 
Q 1334 2694 1188 2670 
Q 1043 2646 915 2598 
L 1117 2790 
Q 1098 2678 1074 2584 
Q 1050 2490 1024 2413 
Q 998 2336 960 2275 
Q 909 2186 827 2157 
Q 746 2128 640 2128 
Q 493 2128 413 2189 
Q 333 2250 333 2339 
Q 333 2445 438 2566 
Q 544 2688 729 2800 
Q 915 2912 1156 2982 
Q 1398 3053 1674 3053 
Q 2029 3053 2243 2949 
Q 2458 2845 2552 2653 
Q 2646 2461 2646 2189 
L 2646 701 
Q 2646 586 2681 514 
Q 2717 442 2785 408 
Q 2854 374 2957 374 
Q 3030 374 3113 393 
Q 3197 413 3283 448 
L 3283 230 
Q 3139 86 2977 17 
Q 2816 -51 2672 -51 
Q 2493 -51 2366 32 
Q 2240 115 2173 281 
Q 2106 448 2099 694 
L 2122 710 
Q 2083 477 1956 302 
Q 1830 128 1638 32 
Q 1446 -64 1203 -64 
Q 797 -64 560 141 
Q 323 346 323 726 
Q 323 938 408 1109 
Q 493 1280 715 1422 
Q 938 1565 1347 1688 
Q 1757 1811 2406 1926 
z
" transform="scale(0.015625)"/>
      <path id="Newsreader16pt-Regular-6c" d="M 1219 355 
L 1722 214 
L 1722 0 
L 160 0 
L 160 214 
L 669 355 
L 669 3962 
Q 627 3994 534 4040 
Q 442 4086 320 4139 
Q 198 4192 74 4240 
L 74 4400 
L 1168 4646 
L 1267 4646 
L 1219 4061 
L 1219 355 
z
" transform="scale(0.015625)"/>
      <path id="Newsreader16pt-Regular-65" d="M 1709 3066 
Q 2125 3066 2393 2893 
Q 2662 2720 2800 2389 
Q 2938 2058 2957 1581 
L 746 1581 
L 739 1904 
L 2566 1942 
L 2365 1843 
Q 2352 2134 2269 2328 
Q 2186 2522 2038 2619 
Q 1891 2717 1677 2717 
Q 1418 2717 1229 2597 
Q 1040 2477 939 2235 
Q 838 1994 838 1622 
Q 838 1219 976 948 
Q 1114 678 1379 542 
Q 1645 406 2029 406 
Q 2195 406 2347 441 
Q 2499 477 2641 536 
Q 2784 595 2912 672 
L 2950 458 
Q 2765 291 2563 174 
Q 2362 58 2155 -3 
Q 1949 -64 1744 -64 
Q 1309 -64 981 121 
Q 653 307 469 649 
Q 285 992 285 1459 
Q 285 1930 459 2291 
Q 634 2653 954 2859 
Q 1274 3066 1709 3066 
z
" transform="scale(0.015625)"/>
      <path id="Newsreader16pt-Regular-20" transform="scale(0.015625)"/>
      <path id="STIXGeneral-Italic-79" d="M 1555 1190 
L 1690 486 
Q 2118 1190 2294 1558 
Q 2470 1926 2470 2131 
Q 2470 2234 2304 2336 
Q 2138 2445 2138 2586 
Q 2138 2688 2211 2755 
Q 2285 2822 2394 2822 
Q 2534 2822 2630 2720 
Q 2726 2618 2726 2470 
Q 2726 1914 1888 518 
Q 1389 -307 918 -812 
Q 448 -1318 173 -1318 
Q 26 -1318 -64 -1241 
Q -154 -1165 -154 -1043 
Q -154 -934 -80 -860 
Q -6 -787 96 -787 
Q 218 -787 314 -876 
Q 410 -966 486 -966 
Q 602 -966 794 -755 
Q 877 -672 1040 -457 
Q 1203 -243 1248 -173 
Q 1312 -45 1312 51 
Q 1312 243 1113 1046 
Q 915 1850 787 2176 
Q 698 2413 592 2499 
Q 486 2586 294 2586 
Q 192 2586 96 2560 
L 96 2669 
Q 237 2694 301 2707 
Q 563 2758 986 2822 
L 1011 2822 
Q 1082 2822 1277 2227 
Q 1472 1632 1555 1190 
z
" transform="scale(0.015625)"/>
      <path id="STIXGeneral-Italic-48" d="M 4922 4179 
L 4922 4077 
Q 4640 4026 4550 3949 
Q 4461 3872 4384 3603 
L 3539 525 
Q 3520 448 3520 371 
Q 3520 237 3616 185 
Q 3712 134 4026 102 
L 4026 0 
L 2272 0 
L 2272 102 
Q 2598 128 2729 237 
Q 2861 346 2925 595 
L 3334 2086 
L 1510 2086 
L 1088 525 
Q 1069 461 1069 384 
Q 1069 243 1149 192 
Q 1229 141 1517 102 
L 1517 0 
L -51 0 
L -51 102 
Q 211 128 310 230 
Q 410 333 499 653 
L 1254 3405 
Q 1331 3699 1331 3814 
Q 1331 3949 1238 3997 
Q 1146 4045 838 4077 
L 838 4179 
L 2573 4179 
L 2573 4077 
Q 2285 4058 2141 3955 
Q 1997 3853 1933 3622 
L 1587 2355 
L 3411 2355 
L 3706 3405 
Q 3795 3738 3795 3808 
Q 3795 3930 3692 3994 
Q 3590 4058 3334 4077 
L 3334 4179 
L 4922 4179 
z
" transform="scale(0.015625)"/>
      <path id="STIXGeneral-Regular-2c" d="M 531 -902 
L 467 -781 
Q 998 -422 998 -96 
Q 998 -13 909 -13 
Q 883 -13 822 -25 
Q 762 -38 723 -38 
Q 352 -38 352 288 
Q 352 454 457 553 
Q 563 653 736 653 
Q 954 653 1101 496 
Q 1248 339 1248 96 
Q 1248 -198 1053 -473 
Q 858 -749 531 -902 
z
" transform="scale(0.015625)"/>
      <path id="STIXGeneral-Italic-76" d="M 1325 448 
L 1523 653 
Q 1869 1005 2134 1456 
Q 2400 1907 2400 2131 
Q 2400 2208 2285 2317 
Q 2125 2458 2125 2605 
Q 2125 2701 2195 2761 
Q 2266 2822 2368 2822 
Q 2522 2822 2624 2704 
Q 2726 2586 2726 2445 
Q 2726 2074 2323 1453 
Q 1971 909 1562 474 
Q 1504 416 1421 326 
Q 1338 237 1299 192 
Q 1261 147 1200 86 
Q 1139 26 1110 -3 
Q 1082 -32 1043 -64 
Q 1005 -96 979 -105 
Q 954 -115 928 -115 
Q 870 -115 870 58 
L 870 211 
Q 870 1094 717 1990 
Q 653 2355 579 2470 
Q 506 2586 326 2586 
Q 198 2586 128 2579 
L 128 2662 
Q 480 2720 845 2797 
Q 915 2822 973 2822 
Q 1011 2822 1033 2739 
Q 1056 2656 1165 2093 
Q 1280 1510 1325 448 
z
" transform="scale(0.015625)"/>
      <path id="STIXGeneral-Italic-74" d="M 1894 2739 
L 1862 2534 
L 1325 2534 
L 768 435 
Q 755 384 755 346 
Q 755 243 851 243 
Q 928 243 1030 342 
Q 1133 442 1370 749 
L 1453 704 
Q 1158 256 969 93 
Q 781 -70 538 -70 
Q 243 -70 243 166 
Q 243 230 346 640 
L 845 2534 
L 365 2534 
L 358 2573 
Q 358 2688 570 2733 
Q 730 2771 992 2979 
Q 1254 3187 1421 3437 
Q 1459 3494 1510 3494 
Q 1568 3494 1568 3443 
Q 1568 3411 1562 3398 
L 1382 2739 
L 1894 2739 
z
" transform="scale(0.015625)"/>
     </defs>
     <use xlink:href="#Newsreader16pt-Regular-73" transform="translate(0 0.017188)"/>
     <use xlink:href="#Newsreader16pt-Regular-61" transform="translate(44.550003 0.017188)"/>
     <use xlink:href="#Newsreader16pt-Regular-6c" transform="translate(96.000015 0.017188)"/>
     <use xlink:href="#Newsreader16pt-Regular-65" transform="translate(125.400009 0.017188)"/>
     <use xlink:href="#Newsreader16pt-Regular-73" transform="translate(176.000015 0.017188)"/>
     <use xlink:href="#Newsreader16pt-Regular-20" transform="translate(220.550018 0.017188)"/>
     <use xlink:href="#STIXGeneral-Italic-79" transform="translate(244.900024 0.017188)"/>
     <use xlink:href="#STIXGeneral-Italic-48" transform="translate(295.473143 35.292188) scale(0.7)"/>
     <use xlink:href="#STIXGeneral-Regular-2c" transform="translate(346.01313 35.292188) scale(0.7)"/>
     <use xlink:href="#STIXGeneral-Italic-76" transform="translate(373.621117 35.292188) scale(0.7)"/>
     <use xlink:href="#STIXGeneral-Italic-74" transform="translate(289.300018 -26.439062) scale(0.7)"/>
    </g>
    <!-- at price $\pi^v_t=P^v_{t-\tau}$ -->
    <g style="fill: #cdcdd5" transform="translate(103.219361 117.663365) scale(0.0864 -0.0864)">
     <defs>
      <path id="Newsreader16pt-Regular-74" d="M 1174 883 
Q 1174 634 1316 523 
Q 1459 413 1744 413 
Q 1869 413 2017 438 
Q 2166 464 2336 512 
L 2336 301 
Q 2118 163 1953 84 
Q 1789 6 1657 -26 
Q 1526 -58 1408 -58 
Q 1184 -58 1006 22 
Q 829 102 726 262 
Q 624 422 624 659 
L 624 2538 
L 144 2742 
L 144 2877 
Q 278 2934 380 2987 
Q 483 3040 568 3096 
Q 653 3152 723 3216 
Q 794 3280 861 3358 
Q 928 3437 998 3533 
L 1174 3533 
L 1174 2899 
L 1174 883 
z
M 963 2608 
L 973 3002 
L 2259 3002 
L 2234 2608 
L 963 2608 
z
" transform="scale(0.015625)"/>
      <path id="Newsreader16pt-Regular-70" d="M 3014 1475 
Q 3014 2038 2745 2323 
Q 2477 2608 2019 2608 
Q 1830 2608 1652 2577 
Q 1475 2547 1312 2488 
Q 1149 2429 998 2339 
L 998 2621 
Q 1216 2746 1398 2830 
Q 1581 2915 1731 2968 
Q 1882 3021 2008 3043 
Q 2134 3066 2243 3066 
Q 2694 3066 3001 2890 
Q 3309 2714 3469 2392 
Q 3629 2070 3629 1635 
Q 3629 1110 3419 729 
Q 3210 349 2856 142 
Q 2502 -64 2070 -64 
Q 1843 -64 1648 14 
Q 1453 93 1301 225 
Q 1149 358 1053 525 
L 1213 525 
L 1213 -1178 
L 1792 -1315 
L 1792 -1526 
L 147 -1526 
L 147 -1315 
L 666 -1174 
L 666 2310 
Q 624 2346 545 2392 
Q 467 2438 361 2492 
Q 256 2547 138 2605 
L 138 2710 
L 982 3075 
L 1078 3075 
L 1216 2595 
L 1216 982 
Q 1216 771 1323 616 
Q 1430 461 1620 377 
Q 1811 294 2058 294 
Q 2358 294 2572 438 
Q 2787 582 2900 848 
Q 3014 1114 3014 1475 
z
" transform="scale(0.015625)"/>
      <path id="Newsreader16pt-Regular-72" d="M 2288 3053 
Q 2445 3053 2531 2968 
Q 2618 2883 2618 2736 
Q 2618 2563 2544 2465 
Q 2470 2368 2358 2368 
Q 2246 2368 2136 2385 
Q 2026 2403 1912 2419 
Q 1798 2435 1680 2435 
Q 1603 2435 1521 2420 
Q 1440 2406 1357 2372 
Q 1274 2339 1194 2285 
L 1110 2397 
Q 1341 2589 1517 2715 
Q 1693 2842 1830 2915 
Q 1968 2989 2080 3021 
Q 2192 3053 2288 3053 
z
M 1293 2432 
L 1293 355 
L 1840 214 
L 1840 0 
L 230 0 
L 230 214 
L 742 355 
L 742 2310 
Q 701 2346 622 2392 
Q 544 2438 438 2492 
Q 333 2547 214 2605 
L 214 2710 
L 1091 3075 
L 1187 3075 
L 1293 2432 
z
" transform="scale(0.015625)"/>
      <path id="Newsreader16pt-Regular-69" d="M 976 3830 
Q 778 3830 654 3939 
Q 531 4048 531 4237 
Q 531 4429 654 4537 
Q 778 4646 976 4646 
Q 1174 4646 1299 4537 
Q 1424 4429 1424 4237 
Q 1424 4048 1299 3939 
Q 1174 3830 976 3830 
z
M 1331 3066 
L 1299 2448 
L 1299 355 
L 1802 214 
L 1802 0 
L 240 0 
L 240 214 
L 749 355 
L 749 2362 
Q 714 2390 626 2440 
Q 538 2490 430 2542 
Q 323 2595 224 2634 
L 224 2781 
L 1210 3066 
L 1331 3066 
z
" transform="scale(0.015625)"/>
      <path id="Newsreader16pt-Regular-63" d="M 1994 3066 
Q 2326 3066 2515 2992 
Q 2704 2918 2784 2812 
Q 2864 2707 2864 2608 
Q 2864 2502 2819 2417 
Q 2774 2333 2692 2283 
Q 2611 2234 2502 2234 
Q 2445 2234 2369 2280 
Q 2294 2326 2211 2396 
Q 2128 2467 2041 2536 
Q 1955 2605 1868 2653 
Q 1782 2701 1706 2701 
Q 1459 2701 1262 2585 
Q 1066 2470 950 2240 
Q 835 2010 835 1661 
Q 835 1261 966 981 
Q 1098 701 1346 553 
Q 1594 406 1942 406 
Q 2150 406 2366 475 
Q 2582 544 2803 672 
L 2842 458 
Q 2659 288 2468 171 
Q 2278 54 2081 -5 
Q 1885 -64 1683 -64 
Q 1270 -64 955 120 
Q 640 304 462 641 
Q 285 979 285 1440 
Q 285 1805 400 2104 
Q 515 2403 734 2617 
Q 954 2832 1272 2949 
Q 1590 3066 1994 3066 
z
" transform="scale(0.015625)"/>
      <path id="STIXGeneral-Italic-3c0" d="M 3430 2739 
L 3296 2266 
L 2643 2266 
Q 2624 2195 2502 1782 
Q 2381 1370 2297 1072 
Q 2214 774 2214 717 
Q 2214 448 2413 448 
Q 2694 448 2867 838 
L 2970 838 
Q 2886 486 2652 208 
Q 2419 -70 2093 -70 
Q 1901 -70 1808 67 
Q 1715 205 1715 410 
Q 1715 627 1824 922 
L 2310 2266 
L 1645 2266 
Q 1568 2061 1401 1469 
Q 1235 877 1068 512 
Q 902 147 672 -38 
Q 563 -115 442 -115 
Q 314 -115 218 -32 
Q 122 51 122 166 
Q 122 429 314 480 
Q 634 563 774 928 
L 1299 2266 
L 1261 2266 
Q 973 2266 819 2208 
Q 666 2150 474 1914 
L 371 1914 
Q 640 2362 931 2550 
Q 1222 2739 1696 2739 
L 3430 2739 
z
" transform="scale(0.015625)"/>
      <path id="STIXGeneral-Regular-3d" d="M 4077 2048 
L 307 2048 
L 307 2470 
L 4077 2470 
L 4077 2048 
z
M 4077 768 
L 307 768 
L 307 1190 
L 4077 1190 
L 4077 768 
z
" transform="scale(0.015625)"/>
      <path id="STIXGeneral-Italic-50" d="M 934 4179 
L 2477 4179 
Q 3872 4179 3872 3232 
Q 3872 2976 3753 2729 
Q 3635 2483 3437 2317 
Q 2995 1952 2125 1952 
Q 1773 1952 1549 2003 
L 1210 768 
Q 1120 422 1120 365 
Q 1120 250 1216 189 
Q 1312 128 1562 102 
L 1562 0 
L 0 0 
L 0 102 
Q 275 141 361 227 
Q 448 314 538 627 
L 1280 3277 
Q 1389 3667 1389 3808 
Q 1389 3936 1299 3990 
Q 1210 4045 934 4077 
L 934 4179 
z
M 2048 3789 
L 1606 2221 
Q 1792 2189 1939 2189 
Q 2496 2189 2758 2342 
Q 3213 2598 3213 3200 
Q 3213 3987 2381 3987 
Q 2099 3987 2048 3789 
z
" transform="scale(0.015625)"/>
      <path id="STIXGeneral-Regular-2212" d="M 3974 1408 
L 410 1408 
L 410 1830 
L 3974 1830 
L 3974 1408 
z
" transform="scale(0.015625)"/>
      <path id="STIXGeneral-Italic-3c4" d="M 2726 2739 
L 2592 2266 
L 1741 2266 
Q 1293 1248 1293 742 
Q 1293 416 1523 416 
Q 1638 416 1779 547 
Q 1920 678 2003 858 
L 2106 858 
Q 1990 467 1731 198 
Q 1472 -70 1178 -70 
Q 768 -70 768 384 
Q 768 890 1395 2266 
L 1005 2266 
Q 493 2266 179 1702 
L 77 1702 
Q 237 2093 569 2416 
Q 902 2739 1331 2739 
L 2726 2739 
z
" transform="scale(0.015625)"/>
     </defs>
     <use xlink:href="#Newsreader16pt-Regular-61" transform="translate(0 0.40625)"/>
     <use xlink:href="#Newsreader16pt-Regular-74" transform="translate(51.450012 0.40625)"/>
     <use xlink:href="#Newsreader16pt-Regular-20" transform="translate(89.600021 0.40625)"/>
     <use xlink:href="#Newsreader16pt-Regular-70" transform="translate(113.950027 0.40625)"/>
     <use xlink:href="#Newsreader16pt-Regular-72" transform="translate(175.100037 0.40625)"/>
     <use xlink:href="#Newsreader16pt-Regular-69" transform="translate(217.800034 0.40625)"/>
     <use xlink:href="#Newsreader16pt-Regular-63" transform="translate(248.450027 0.40625)"/>
     <use xlink:href="#Newsreader16pt-Regular-65" transform="translate(296.600037 0.40625)"/>
     <use xlink:href="#Newsreader16pt-Regular-20" transform="translate(347.200043 0.40625)"/>
     <use xlink:href="#STIXGeneral-Italic-3c0" transform="translate(371.550049 0.40625)"/>
     <use xlink:href="#STIXGeneral-Italic-76" transform="translate(427.850824 35.68125) scale(0.7)"/>
     <use xlink:href="#STIXGeneral-Italic-74" transform="translate(421.950043 -26.05) scale(0.7)"/>
     <use xlink:href="#STIXGeneral-Regular-3d" transform="translate(477.780191 0.40625)"/>
     <use xlink:href="#STIXGeneral-Italic-50" transform="translate(560.720172 0.40625)"/>
     <use xlink:href="#STIXGeneral-Italic-76" transform="translate(632.445944 35.68125) scale(0.7)"/>
     <use xlink:href="#STIXGeneral-Italic-74" transform="translate(621.820163 -26.05) scale(0.7)"/>
     <use xlink:href="#STIXGeneral-Regular-2212" transform="translate(651.388152 -26.05) scale(0.7)"/>
     <use xlink:href="#STIXGeneral-Italic-3c4" transform="translate(709.446139 -26.05) scale(0.7)"/>
    </g>
   </g>
   <g id="text_2">
    <!-- spending $q_t$ -->
    <g style="fill: #797984" transform="translate(191.687289 107.480585) scale(0.0864 -0.0864)">
     <defs>
      <path id="Newsreader16pt-Regular-6e" d="M 1293 2432 
L 1293 355 
L 1792 214 
L 1792 0 
L 230 0 
L 230 214 
L 742 355 
L 742 2310 
Q 691 2355 561 2428 
Q 432 2502 214 2605 
L 214 2710 
L 1059 3075 
L 1155 3075 
L 1293 2432 
z
M 2314 214 
L 2816 355 
L 2816 1942 
Q 2816 2141 2741 2272 
Q 2666 2403 2510 2470 
Q 2355 2538 2112 2538 
Q 1869 2538 1640 2469 
Q 1411 2400 1270 2298 
L 1181 2413 
Q 1418 2618 1587 2746 
Q 1757 2874 1893 2944 
Q 2029 3014 2161 3040 
Q 2294 3066 2454 3066 
Q 2925 3066 3145 2810 
Q 3366 2554 3366 2026 
L 3366 355 
L 3882 214 
L 3882 0 
L 2314 0 
L 2314 214 
z
" transform="scale(0.015625)"/>
      <path id="Newsreader16pt-Regular-64" d="M 2701 2022 
Q 2701 2336 2512 2525 
Q 2323 2714 1904 2714 
Q 1581 2714 1357 2568 
Q 1133 2422 1017 2153 
Q 902 1885 902 1510 
Q 902 1142 1020 892 
Q 1139 643 1361 520 
Q 1584 397 1898 397 
Q 2170 397 2424 475 
Q 2678 554 2928 710 
L 2928 541 
Q 2634 342 2435 220 
Q 2237 99 2097 38 
Q 1958 -22 1852 -43 
Q 1747 -64 1642 -64 
Q 1197 -64 896 113 
Q 595 291 441 612 
Q 288 934 288 1366 
Q 288 1760 416 2073 
Q 544 2387 773 2609 
Q 1002 2832 1304 2949 
Q 1606 3066 1952 3066 
Q 2147 3066 2316 3037 
Q 2486 3008 2657 2944 
Q 2829 2880 3021 2771 
L 2701 2602 
L 2701 4006 
Q 2662 4035 2564 4080 
Q 2467 4125 2353 4173 
Q 2240 4221 2147 4256 
L 2147 4410 
L 3200 4646 
L 3296 4646 
L 3251 4058 
L 3251 608 
Q 3280 586 3341 550 
Q 3402 515 3477 478 
Q 3552 442 3624 411 
Q 3696 381 3747 365 
L 3747 250 
L 2934 -58 
L 2842 -58 
L 2701 538 
L 2701 2022 
z
" transform="scale(0.015625)"/>
      <path id="Newsreader16pt-Regular-67" d="M 1562 -1590 
Q 1187 -1590 908 -1537 
Q 630 -1485 449 -1385 
Q 269 -1286 181 -1140 
Q 93 -995 93 -813 
Q 93 -682 161 -562 
Q 230 -442 377 -342 
Q 525 -243 755 -174 
Q 986 -106 1315 -74 
L 1530 -70 
L 1530 -141 
Q 1203 -170 1017 -251 
Q 832 -333 755 -454 
Q 678 -576 678 -726 
Q 678 -906 772 -1026 
Q 867 -1146 1072 -1205 
Q 1277 -1264 1600 -1264 
Q 1968 -1264 2217 -1190 
Q 2467 -1117 2593 -982 
Q 2720 -848 2720 -669 
Q 2720 -547 2672 -460 
Q 2624 -374 2501 -316 
Q 2378 -259 2152 -227 
Q 1926 -195 1568 -186 
Q 1213 -176 979 -126 
Q 746 -77 614 8 
Q 483 93 428 205 
Q 374 317 374 448 
Q 374 662 580 816 
Q 787 970 1216 1027 
L 1264 957 
Q 1085 938 997 869 
Q 909 800 909 662 
Q 909 586 939 525 
Q 970 464 1067 422 
Q 1165 381 1365 357 
Q 1565 333 1904 320 
Q 2243 310 2499 260 
Q 2755 211 2924 112 
Q 3094 13 3180 -144 
Q 3267 -301 3267 -525 
Q 3267 -829 3067 -1070 
Q 2867 -1312 2486 -1451 
Q 2106 -1590 1562 -1590 
z
M 1558 906 
Q 1184 906 901 1038 
Q 618 1171 461 1414 
Q 304 1658 304 1984 
Q 304 2314 461 2557 
Q 618 2800 901 2933 
Q 1184 3066 1558 3066 
Q 1837 3066 2065 2990 
Q 2294 2915 2459 2772 
Q 2624 2630 2713 2432 
Q 2803 2234 2803 1987 
Q 2803 1658 2646 1414 
Q 2490 1171 2210 1038 
Q 1930 906 1558 906 
z
M 1584 1229 
Q 1875 1229 2060 1413 
Q 2246 1597 2246 1962 
Q 2246 2342 2067 2544 
Q 1888 2746 1542 2746 
Q 1245 2746 1054 2562 
Q 864 2378 864 2013 
Q 864 1635 1048 1432 
Q 1232 1229 1584 1229 
z
M 2038 2755 
L 1891 3011 
Q 2106 2995 2307 3001 
Q 2509 3008 2685 3022 
Q 2861 3037 3001 3051 
Q 3142 3066 3235 3066 
Q 3315 3066 3355 3010 
Q 3395 2954 3395 2835 
Q 3395 2698 3342 2608 
Q 3290 2518 3216 2518 
Q 3146 2518 3064 2547 
Q 2982 2576 2859 2616 
Q 2736 2656 2539 2694 
Q 2342 2733 2038 2755 
z
" transform="scale(0.015625)"/>
      <path id="STIXGeneral-Italic-71" d="M 3098 2739 
L 2042 -966 
Q 2029 -1018 2029 -1037 
Q 2029 -1235 2394 -1235 
L 2490 -1235 
L 2490 -1338 
L 973 -1338 
L 973 -1235 
Q 1267 -1216 1382 -1139 
Q 1498 -1062 1555 -877 
L 2131 979 
Q 1754 378 1466 154 
Q 1178 -70 800 -70 
Q 499 -70 329 128 
Q 160 326 160 672 
Q 160 1165 445 1670 
Q 730 2176 1168 2499 
Q 1606 2822 2035 2822 
Q 2438 2822 2528 2426 
L 2630 2739 
L 3098 2739 
z
M 2432 2298 
Q 2432 2458 2323 2570 
Q 2214 2682 2054 2682 
Q 1792 2682 1459 2368 
Q 1133 2054 921 1606 
Q 710 1158 710 762 
Q 710 269 1050 269 
Q 1312 269 1574 499 
Q 1901 781 2166 1341 
Q 2432 1901 2432 2298 
z
" transform="scale(0.015625)"/>
     </defs>
     <use xlink:href="#Newsreader16pt-Regular-73" transform="translate(0 0.40625)"/>
     <use xlink:href="#Newsreader16pt-Regular-70" transform="translate(44.550003 0.40625)"/>
     <use xlink:href="#Newsreader16pt-Regular-65" transform="translate(105.700012 0.40625)"/>
     <use xlink:href="#Newsreader16pt-Regular-6e" transform="translate(156.300018 0.40625)"/>
     <use xlink:href="#Newsreader16pt-Regular-64" transform="translate(218.600021 0.40625)"/>
     <use xlink:href="#Newsreader16pt-Regular-69" transform="translate(279.150024 0.40625)"/>
     <use xlink:href="#Newsreader16pt-Regular-6e" transform="translate(309.800018 0.40625)"/>
     <use xlink:href="#Newsreader16pt-Regular-67" transform="translate(372.100021 0.40625)"/>
     <use xlink:href="#Newsreader16pt-Regular-20" transform="translate(425.800034 0.40625)"/>
     <use xlink:href="#STIXGeneral-Italic-71" transform="translate(450.15004 0.40625)"/>
     <use xlink:href="#STIXGeneral-Italic-74" transform="translate(500.150024 -12.821875) scale(0.7)"/>
    </g>
    <!-- tastes $\eta^v_t$ -->
    <g style="fill: #797984" transform="translate(191.687289 117.167105) scale(0.0864 -0.0864)">
     <defs>
      <path id="STIXGeneral-Italic-3b7" d="M 947 1459 
L 960 1453 
Q 1811 2822 2374 2822 
Q 2573 2822 2701 2729 
Q 2829 2637 2829 2458 
Q 2829 2304 2765 2054 
L 2208 0 
Q 2016 -698 2016 -1094 
Q 2016 -1190 2067 -1312 
L 1600 -1312 
Q 1530 -1229 1530 -1030 
Q 1530 -710 1741 58 
L 2221 1811 
Q 2310 2112 2310 2272 
Q 2310 2496 2150 2496 
Q 1894 2496 1427 1897 
Q 960 1299 774 678 
L 570 0 
L 90 0 
L 614 1952 
Q 704 2272 704 2349 
Q 704 2458 614 2458 
Q 589 2458 560 2445 
Q 531 2432 499 2403 
Q 467 2374 438 2348 
Q 410 2323 374 2281 
Q 339 2240 316 2211 
Q 294 2182 259 2140 
Q 224 2099 211 2086 
L 134 2150 
Q 218 2291 320 2413 
Q 634 2803 941 2803 
Q 1197 2803 1197 2515 
Q 1197 2253 947 1459 
z
" transform="scale(0.015625)"/>
     </defs>
     <use xlink:href="#Newsreader16pt-Regular-74" transform="translate(0 0.859375)"/>
     <use xlink:href="#Newsreader16pt-Regular-61" transform="translate(38.150009 0.859375)"/>
     <use xlink:href="#Newsreader16pt-Regular-73" transform="translate(89.600021 0.859375)"/>
     <use xlink:href="#Newsreader16pt-Regular-74" transform="translate(134.150024 0.859375)"/>
     <use xlink:href="#Newsreader16pt-Regular-65" transform="translate(172.300034 0.859375)"/>
     <use xlink:href="#Newsreader16pt-Regular-73" transform="translate(222.90004 0.859375)"/>
     <use xlink:href="#Newsreader16pt-Regular-20" transform="translate(267.450043 0.859375)"/>
     <use xlink:href="#STIXGeneral-Italic-3b7" transform="translate(291.800049 0.859375)"/>
     <use xlink:href="#STIXGeneral-Italic-76" transform="translate(345.373168 36.134375) scale(0.7)"/>
     <use xlink:href="#STIXGeneral-Italic-74" transform="translate(339.200043 -25.596875) scale(0.7)"/>
    </g>
   </g>
   <g id="text_3">
    <!-- order $o^{v-1}_t$ -->
    <g style="fill: #3984da" transform="translate(32.458198 92.296538) scale(0.0864 -0.0864)">
     <defs>
      <path id="Newsreader16pt-Regular-6f" d="M 1808 301 
Q 2106 301 2322 421 
Q 2538 541 2653 789 
Q 2768 1037 2768 1424 
Q 2768 1846 2661 2129 
Q 2554 2413 2346 2558 
Q 2138 2704 1834 2704 
Q 1536 2704 1321 2584 
Q 1107 2464 992 2214 
Q 877 1965 877 1578 
Q 877 1162 984 875 
Q 1091 589 1299 445 
Q 1507 301 1808 301 
z
M 1802 -64 
Q 1341 -64 998 129 
Q 656 323 470 673 
Q 285 1024 285 1485 
Q 285 1955 480 2312 
Q 675 2669 1025 2867 
Q 1376 3066 1840 3066 
Q 2304 3066 2645 2872 
Q 2986 2678 3173 2331 
Q 3360 1984 3360 1517 
Q 3360 1046 3165 691 
Q 2970 336 2619 136 
Q 2269 -64 1802 -64 
z
" transform="scale(0.015625)"/>
      <path id="STIXGeneral-Italic-6f" d="M 2995 1926 
Q 2995 1562 2812 1168 
Q 2630 774 2317 461 
Q 1786 -70 1114 -70 
Q 666 -70 419 163 
Q 173 397 173 819 
Q 173 1350 496 1856 
Q 819 2362 1325 2630 
Q 1683 2822 2093 2822 
Q 2490 2822 2742 2582 
Q 2995 2342 2995 1926 
z
M 2458 2086 
Q 2458 2374 2336 2531 
Q 2214 2688 2003 2688 
Q 1574 2688 1184 2106 
Q 710 1382 710 646 
Q 710 365 844 214 
Q 979 64 1210 64 
Q 1600 64 1984 595 
Q 2202 890 2330 1302 
Q 2458 1715 2458 2086 
z
" transform="scale(0.015625)"/>
      <path id="STIXGeneral-Regular-31" d="M 2522 0 
L 755 0 
L 755 96 
Q 1107 115 1235 227 
Q 1363 339 1363 608 
L 1363 3482 
Q 1363 3795 1171 3795 
Q 1082 3795 883 3718 
L 710 3654 
L 710 3744 
L 1856 4326 
L 1914 4307 
L 1914 486 
Q 1914 275 2042 185 
Q 2170 96 2522 96 
L 2522 0 
z
" transform="scale(0.015625)"/>
     </defs>
     <use xlink:href="#Newsreader16pt-Regular-6f" transform="translate(0 0.409375)"/>
     <use xlink:href="#Newsreader16pt-Regular-72" transform="translate(56.900009 0.409375)"/>
     <use xlink:href="#Newsreader16pt-Regular-64" transform="translate(99.600006 0.409375)"/>
     <use xlink:href="#Newsreader16pt-Regular-65" transform="translate(160.150009 0.409375)"/>
     <use xlink:href="#Newsreader16pt-Regular-72" transform="translate(210.750015 0.409375)"/>
     <use xlink:href="#Newsreader16pt-Regular-20" transform="translate(253.450012 0.409375)"/>
     <use xlink:href="#STIXGeneral-Italic-6f" transform="translate(277.800018 0.409375)"/>
     <use xlink:href="#STIXGeneral-Italic-76" transform="translate(333.973128 35.684375) scale(0.7)"/>
     <use xlink:href="#STIXGeneral-Regular-2212" transform="translate(375.161121 35.684375) scale(0.7)"/>
     <use xlink:href="#STIXGeneral-Regular-31" transform="translate(433.219108 35.684375) scale(0.7)"/>
     <use xlink:href="#STIXGeneral-Italic-74" transform="translate(327.800003 -26.046875) scale(0.7)"/>
    </g>
   </g>
   <g id="text_4">
    <!-- the cycle closes: firm $v+1$ sells on to $v+2$, and firm $v-1$ buys from $v-2$ -->
    <g style="fill: #797984" transform="translate(47.520925 164.807662) scale(0.081 -0.081)">
     <defs>
      <path id="Newsreader16pt-Regular-68" d="M 2234 214 
L 2733 355 
L 2733 1942 
Q 2733 2141 2659 2272 
Q 2586 2403 2429 2470 
Q 2272 2538 2029 2538 
Q 1789 2538 1558 2469 
Q 1328 2400 1187 2298 
L 1101 2413 
Q 1334 2618 1504 2746 
Q 1674 2874 1810 2944 
Q 1946 3014 2080 3040 
Q 2214 3066 2374 3066 
Q 2842 3066 3062 2810 
Q 3283 2554 3283 2026 
L 3283 355 
L 3798 214 
L 3798 0 
L 2234 0 
L 2234 214 
z
M 1712 0 
L 150 0 
L 150 214 
L 659 355 
L 659 3962 
Q 618 3994 525 4040 
Q 432 4086 310 4139 
Q 189 4192 64 4240 
L 64 4400 
L 1158 4646 
L 1258 4646 
L 1210 4061 
L 1210 355 
L 1712 214 
L 1712 0 
z
" transform="scale(0.015625)"/>
      <path id="Newsreader16pt-Regular-79" d="M 2163 454 
L 1808 -90 
L 512 2627 
L 64 2787 
L 64 3002 
L 1590 3002 
L 1590 2787 
L 1126 2650 
L 2163 454 
z
M 842 -1590 
Q 618 -1590 488 -1483 
Q 358 -1376 358 -1181 
Q 358 -1091 392 -1024 
Q 426 -957 477 -918 
Q 528 -880 576 -880 
Q 630 -880 713 -904 
Q 797 -928 889 -952 
Q 982 -976 1059 -976 
Q 1171 -976 1260 -923 
Q 1350 -870 1436 -747 
Q 1523 -624 1613 -419 
L 1866 195 
L 1968 454 
L 2810 2662 
L 2355 2787 
L 2355 3002 
L 3568 3002 
L 3568 2787 
L 3200 2672 
L 1846 -643 
Q 1702 -995 1558 -1201 
Q 1414 -1408 1241 -1499 
Q 1069 -1590 842 -1590 
z
" transform="scale(0.015625)"/>
      <path id="Newsreader16pt-Regular-3a" d="M 880 829 
Q 1078 829 1201 710 
Q 1325 592 1325 394 
Q 1325 195 1201 75 
Q 1078 -45 880 -45 
Q 682 -45 558 75 
Q 435 195 435 394 
Q 435 592 558 710 
Q 682 829 880 829 
z
M 880 3043 
Q 1078 3043 1201 2924 
Q 1325 2806 1325 2605 
Q 1325 2406 1201 2288 
Q 1078 2170 880 2170 
Q 682 2170 558 2288 
Q 435 2406 435 2605 
Q 435 2806 558 2924 
Q 682 3043 880 3043 
z
" transform="scale(0.015625)"/>
      <path id="Newsreader16pt-Regular-66" d="M 896 2608 
L 758 2531 
L 176 2675 
L 176 2826 
L 806 3040 
L 931 3002 
L 2365 3002 
L 2336 2608 
L 896 2608 
z
M 1309 355 
L 1885 214 
L 1885 0 
L 250 0 
L 250 214 
L 758 355 
L 758 3171 
Q 758 3552 883 3830 
Q 1008 4109 1227 4289 
Q 1446 4470 1732 4558 
Q 2019 4646 2342 4646 
Q 2576 4646 2736 4614 
Q 2896 4582 2992 4526 
Q 3088 4470 3131 4395 
Q 3174 4320 3174 4234 
Q 3174 4080 3075 3987 
Q 2976 3894 2822 3894 
Q 2749 3894 2683 3952 
Q 2618 4010 2542 4086 
Q 2467 4163 2360 4220 
Q 2253 4278 2093 4278 
Q 1859 4278 1683 4193 
Q 1507 4109 1408 3923 
Q 1309 3738 1309 3434 
L 1309 355 
z
" transform="scale(0.015625)"/>
      <path id="Newsreader16pt-Regular-6d" d="M 1293 2432 
L 1293 355 
L 1776 214 
L 1776 0 
L 230 0 
L 230 214 
L 742 355 
L 742 2310 
Q 691 2355 561 2428 
Q 432 2502 214 2605 
L 214 2710 
L 1059 3075 
L 1155 3075 
L 1293 2432 
z
M 3229 2214 
L 3229 355 
L 3712 214 
L 3712 0 
L 2192 0 
L 2192 214 
L 2678 355 
L 2678 1990 
Q 2678 2179 2606 2300 
Q 2534 2422 2392 2480 
Q 2250 2538 2035 2538 
Q 1821 2538 1608 2477 
Q 1395 2416 1264 2320 
L 1181 2454 
Q 1402 2646 1558 2766 
Q 1715 2886 1844 2952 
Q 1974 3018 2097 3042 
Q 2221 3066 2371 3066 
Q 2675 3066 2864 2965 
Q 3053 2864 3141 2673 
Q 3229 2483 3229 2214 
z
M 5165 2099 
L 5165 355 
L 5680 214 
L 5680 0 
L 4128 0 
L 4128 214 
L 4614 355 
L 4614 1987 
Q 4614 2179 4540 2299 
Q 4467 2419 4323 2478 
Q 4179 2538 3965 2538 
Q 3750 2538 3536 2475 
Q 3322 2413 3190 2317 
L 3107 2451 
Q 3328 2643 3488 2764 
Q 3648 2886 3776 2952 
Q 3904 3018 4029 3042 
Q 4154 3066 4304 3066 
Q 4755 3066 4960 2819 
Q 5165 2573 5165 2099 
z
" transform="scale(0.015625)"/>
      <path id="STIXGeneral-Regular-2b" d="M 4070 1408 
L 2400 1408 
L 2400 -262 
L 1978 -262 
L 1978 1408 
L 307 1408 
L 307 1830 
L 1978 1830 
L 1978 3501 
L 2400 3501 
L 2400 1830 
L 4070 1830 
L 4070 1408 
z
" transform="scale(0.015625)"/>
      <path id="STIXGeneral-Regular-32" d="M 3034 877 
L 2688 0 
L 186 0 
L 186 77 
L 1325 1286 
Q 1773 1754 1965 2144 
Q 2157 2534 2157 2950 
Q 2157 3379 1920 3616 
Q 1683 3853 1267 3853 
Q 922 3853 720 3673 
Q 518 3494 326 3021 
L 192 3053 
Q 301 3648 630 3987 
Q 960 4326 1523 4326 
Q 2054 4326 2380 4006 
Q 2707 3686 2707 3200 
Q 2707 2477 1888 1613 
L 832 486 
L 2330 486 
Q 2541 486 2665 569 
Q 2790 653 2944 915 
L 3034 877 
z
" transform="scale(0.015625)"/>
      <path id="Newsreader16pt-Regular-2c" d="M 182 -934 
Q 499 -685 630 -489 
Q 762 -294 762 -118 
Q 762 -16 699 54 
Q 637 125 557 179 
Q 477 234 414 282 
Q 352 330 352 390 
Q 352 586 469 707 
Q 586 829 794 829 
Q 1011 829 1137 697 
Q 1264 566 1264 301 
Q 1264 125 1216 -44 
Q 1168 -214 1062 -387 
Q 957 -560 782 -742 
Q 608 -925 349 -1126 
L 182 -934 
z
" transform="scale(0.015625)"/>
      <path id="Newsreader16pt-Regular-62" d="M 874 464 
L 1142 464 
L 662 -26 
L 397 -6 
L 541 810 
L 541 3962 
Q 499 3994 406 4040 
Q 314 4086 192 4139 
Q 70 4192 -54 4240 
L -54 4400 
L 1040 4646 
L 1139 4646 
L 1091 4061 
L 1091 1043 
Q 1091 806 1188 638 
Q 1286 470 1475 382 
Q 1664 294 1933 294 
Q 2234 294 2448 438 
Q 2662 582 2776 856 
Q 2890 1130 2890 1520 
Q 2890 1875 2771 2118 
Q 2653 2362 2430 2485 
Q 2208 2608 1894 2608 
Q 1702 2608 1518 2576 
Q 1334 2544 1166 2481 
Q 998 2419 848 2326 
L 848 2608 
Q 1082 2736 1274 2822 
Q 1466 2909 1619 2963 
Q 1773 3018 1899 3042 
Q 2026 3066 2131 3066 
Q 2573 3066 2880 2890 
Q 3187 2714 3345 2394 
Q 3504 2074 3504 1635 
Q 3504 1245 3390 929 
Q 3277 614 3065 392 
Q 2854 170 2566 51 
Q 2278 -67 1933 -67 
Q 1712 -67 1523 -11 
Q 1334 45 1174 161 
Q 1014 278 874 464 
z
" transform="scale(0.015625)"/>
      <path id="Newsreader16pt-Regular-75" d="M 1174 1018 
Q 1174 819 1235 697 
Q 1296 576 1438 521 
Q 1581 467 1824 467 
Q 2038 467 2251 529 
Q 2464 592 2598 688 
L 2682 554 
Q 2461 358 2302 236 
Q 2144 115 2019 49 
Q 1894 -16 1771 -40 
Q 1648 -64 1498 -64 
Q 1046 -64 835 184 
Q 624 432 624 922 
L 624 2582 
L 102 2787 
L 102 3005 
L 1222 3043 
L 1174 2614 
L 1174 1018 
z
M 2707 -58 
L 2563 522 
L 2563 2582 
L 2054 2787 
L 2054 3005 
L 3162 3043 
L 3114 2614 
L 3114 608 
Q 3142 586 3204 550 
Q 3267 515 3342 478 
Q 3418 442 3490 411 
Q 3562 381 3613 365 
L 3613 250 
L 2800 -58 
L 2707 -58 
z
" transform="scale(0.015625)"/>
     </defs>
     <use xlink:href="#Newsreader16pt-Regular-74" transform="translate(0 0.40625)"/>
     <use xlink:href="#Newsreader16pt-Regular-68" transform="translate(38.150009 0.40625)"/>
     <use xlink:href="#Newsreader16pt-Regular-65" transform="translate(99.200012 0.40625)"/>
     <use xlink:href="#Newsreader16pt-Regular-20" transform="translate(149.800018 0.40625)"/>
     <use xlink:href="#Newsreader16pt-Regular-63" transform="translate(174.150024 0.40625)"/>
     <use xlink:href="#Newsreader16pt-Regular-79" transform="translate(222.300034 0.40625)"/>
     <use xlink:href="#Newsreader16pt-Regular-63" transform="translate(279.600037 0.40625)"/>
     <use xlink:href="#Newsreader16pt-Regular-6c" transform="translate(327.750046 0.40625)"/>
     <use xlink:href="#Newsreader16pt-Regular-65" transform="translate(357.15004 0.40625)"/>
     <use xlink:href="#Newsreader16pt-Regular-20" transform="translate(407.750046 0.40625)"/>
     <use xlink:href="#Newsreader16pt-Regular-63" transform="translate(432.100052 0.40625)"/>
     <use xlink:href="#Newsreader16pt-Regular-6c" transform="translate(480.250061 0.40625)"/>
     <use xlink:href="#Newsreader16pt-Regular-6f" transform="translate(509.650055 0.40625)"/>
     <use xlink:href="#Newsreader16pt-Regular-73" transform="translate(566.550064 0.40625)"/>
     <use xlink:href="#Newsreader16pt-Regular-65" transform="translate(611.100067 0.40625)"/>
     <use xlink:href="#Newsreader16pt-Regular-73" transform="translate(661.700073 0.40625)"/>
     <use xlink:href="#Newsreader16pt-Regular-3a" transform="translate(706.250076 0.40625)"/>
     <use xlink:href="#Newsreader16pt-Regular-20" transform="translate(733.700073 0.40625)"/>
     <use xlink:href="#Newsreader16pt-Regular-66" transform="translate(758.050079 0.40625)"/>
     <use xlink:href="#Newsreader16pt-Regular-69" transform="translate(796.750076 0.40625)"/>
     <use xlink:href="#Newsreader16pt-Regular-72" transform="translate(827.40007 0.40625)"/>
     <use xlink:href="#Newsreader16pt-Regular-6d" transform="translate(870.100067 0.40625)"/>
     <use xlink:href="#Newsreader16pt-Regular-20" transform="translate(960.550079 0.40625)"/>
     <use xlink:href="#STIXGeneral-Italic-76" transform="translate(984.900085 0.40625)"/>
     <use xlink:href="#STIXGeneral-Regular-2b" transform="translate(1043.740076 0.40625)"/>
     <use xlink:href="#STIXGeneral-Regular-31" transform="translate(1126.680057 0.40625)"/>
     <use xlink:href="#Newsreader16pt-Regular-20" transform="translate(1176.680042 0.40625)"/>
     <use xlink:href="#Newsreader16pt-Regular-73" transform="translate(1201.030048 0.40625)"/>
     <use xlink:href="#Newsreader16pt-Regular-65" transform="translate(1245.580051 0.40625)"/>
     <use xlink:href="#Newsreader16pt-Regular-6c" transform="translate(1296.180057 0.40625)"/>
     <use xlink:href="#Newsreader16pt-Regular-6c" transform="translate(1325.580051 0.40625)"/>
     <use xlink:href="#Newsreader16pt-Regular-73" transform="translate(1354.980045 0.40625)"/>
     <use xlink:href="#Newsreader16pt-Regular-20" transform="translate(1399.530048 0.40625)"/>
     <use xlink:href="#Newsreader16pt-Regular-6f" transform="translate(1423.880054 0.40625)"/>
     <use xlink:href="#Newsreader16pt-Regular-6e" transform="translate(1480.780063 0.40625)"/>
     <use xlink:href="#Newsreader16pt-Regular-20" transform="translate(1543.080066 0.40625)"/>
     <use xlink:href="#Newsreader16pt-Regular-74" transform="translate(1567.430072 0.40625)"/>
     <use xlink:href="#Newsreader16pt-Regular-6f" transform="translate(1605.580081 0.40625)"/>
     <use xlink:href="#Newsreader16pt-Regular-20" transform="translate(1662.48009 0.40625)"/>
     <use xlink:href="#STIXGeneral-Italic-76" transform="translate(1686.830096 0.40625)"/>
     <use xlink:href="#STIXGeneral-Regular-2b" transform="translate(1745.670087 0.40625)"/>
     <use xlink:href="#STIXGeneral-Regular-32" transform="translate(1828.610068 0.40625)"/>
     <use xlink:href="#Newsreader16pt-Regular-2c" transform="translate(1878.610052 0.40625)"/>
     <use xlink:href="#Newsreader16pt-Regular-20" transform="translate(1904.110052 0.40625)"/>
     <use xlink:href="#Newsreader16pt-Regular-61" transform="translate(1928.460059 0.40625)"/>
     <use xlink:href="#Newsreader16pt-Regular-6e" transform="translate(1979.910071 0.40625)"/>
     <use xlink:href="#Newsreader16pt-Regular-64" transform="translate(2042.210074 0.40625)"/>
     <use xlink:href="#Newsreader16pt-Regular-20" transform="translate(2102.760077 0.40625)"/>
     <use xlink:href="#Newsreader16pt-Regular-66" transform="translate(2127.110083 0.40625)"/>
     <use xlink:href="#Newsreader16pt-Regular-69" transform="translate(2165.81008 0.40625)"/>
     <use xlink:href="#Newsreader16pt-Regular-72" transform="translate(2196.460074 0.40625)"/>
     <use xlink:href="#Newsreader16pt-Regular-6d" transform="translate(2239.160071 0.40625)"/>
     <use xlink:href="#Newsreader16pt-Regular-20" transform="translate(2329.610083 0.40625)"/>
     <use xlink:href="#STIXGeneral-Italic-76" transform="translate(2353.960089 0.40625)"/>
     <use xlink:href="#STIXGeneral-Regular-2212" transform="translate(2412.800079 0.40625)"/>
     <use xlink:href="#STIXGeneral-Regular-31" transform="translate(2495.74006 0.40625)"/>
     <use xlink:href="#Newsreader16pt-Regular-20" transform="translate(2545.740045 0.40625)"/>
     <use xlink:href="#Newsreader16pt-Regular-62" transform="translate(2570.090051 0.40625)"/>
     <use xlink:href="#Newsreader16pt-Regular-75" transform="translate(2629.340051 0.40625)"/>
     <use xlink:href="#Newsreader16pt-Regular-79" transform="translate(2688.040063 0.40625)"/>
     <use xlink:href="#Newsreader16pt-Regular-73" transform="translate(2745.340067 0.40625)"/>
     <use xlink:href="#Newsreader16pt-Regular-20" transform="translate(2789.89007 0.40625)"/>
     <use xlink:href="#Newsreader16pt-Regular-66" transform="translate(2814.240076 0.40625)"/>
     <use xlink:href="#Newsreader16pt-Regular-72" transform="translate(2852.940073 0.40625)"/>
     <use xlink:href="#Newsreader16pt-Regular-6f" transform="translate(2895.64007 0.40625)"/>
     <use xlink:href="#Newsreader16pt-Regular-6d" transform="translate(2952.540079 0.40625)"/>
     <use xlink:href="#Newsreader16pt-Regular-20" transform="translate(3042.990091 0.40625)"/>
     <use xlink:href="#STIXGeneral-Italic-76" transform="translate(3067.340097 0.40625)"/>
     <use xlink:href="#STIXGeneral-Regular-2212" transform="translate(3126.180087 0.40625)"/>
     <use xlink:href="#STIXGeneral-Regular-32" transform="translate(3209.120068 0.40625)"/>
    </g>
   </g>
   <g id="text_5">
    <!-- the cycle, seen from firm $v$ -->
    <g style="fill: #e4e4ea" transform="translate(113.940925 10.764) scale(0.108 -0.108)">
     <use xlink:href="#Newsreader16pt-Regular-74" transform="translate(0 0.40625)"/>
     <use xlink:href="#Newsreader16pt-Regular-68" transform="translate(38.150009 0.40625)"/>
     <use xlink:href="#Newsreader16pt-Regular-65" transform="translate(99.200012 0.40625)"/>
     <use xlink:href="#Newsreader16pt-Regular-20" transform="translate(149.800018 0.40625)"/>
     <use xlink:href="#Newsreader16pt-Regular-63" transform="translate(174.150024 0.40625)"/>
     <use xlink:href="#Newsreader16pt-Regular-79" transform="translate(222.300034 0.40625)"/>
     <use xlink:href="#Newsreader16pt-Regular-63" transform="translate(279.600037 0.40625)"/>
     <use xlink:href="#Newsreader16pt-Regular-6c" transform="translate(327.750046 0.40625)"/>
     <use xlink:href="#Newsreader16pt-Regular-65" transform="translate(357.15004 0.40625)"/>
     <use xlink:href="#Newsreader16pt-Regular-2c" transform="translate(407.750046 0.40625)"/>
     <use xlink:href="#Newsreader16pt-Regular-20" transform="translate(433.250046 0.40625)"/>
     <use xlink:href="#Newsreader16pt-Regular-73" transform="translate(457.600052 0.40625)"/>
     <use xlink:href="#Newsreader16pt-Regular-65" transform="translate(502.150055 0.40625)"/>
     <use xlink:href="#Newsreader16pt-Regular-65" transform="translate(552.750061 0.40625)"/>
     <use xlink:href="#Newsreader16pt-Regular-6e" transform="translate(603.350067 0.40625)"/>
     <use xlink:href="#Newsreader16pt-Regular-20" transform="translate(665.65007 0.40625)"/>
     <use xlink:href="#Newsreader16pt-Regular-66" transform="translate(690.000076 0.40625)"/>
     <use xlink:href="#Newsreader16pt-Regular-72" transform="translate(728.700073 0.40625)"/>
     <use xlink:href="#Newsreader16pt-Regular-6f" transform="translate(771.40007 0.40625)"/>
     <use xlink:href="#Newsreader16pt-Regular-6d" transform="translate(828.300079 0.40625)"/>
     <use xlink:href="#Newsreader16pt-Regular-20" transform="translate(918.750092 0.40625)"/>
     <use xlink:href="#Newsreader16pt-Regular-66" transform="translate(943.100098 0.40625)"/>
     <use xlink:href="#Newsreader16pt-Regular-69" transform="translate(981.800095 0.40625)"/>
     <use xlink:href="#Newsreader16pt-Regular-72" transform="translate(1012.450089 0.40625)"/>
     <use xlink:href="#Newsreader16pt-Regular-6d" transform="translate(1055.150085 0.40625)"/>
     <use xlink:href="#Newsreader16pt-Regular-20" transform="translate(1145.600098 0.40625)"/>
     <use xlink:href="#STIXGeneral-Italic-76" transform="translate(1169.950104 0.40625)"/>
    </g>
   </g>
   <g id="text_6">
    <!-- firm $v-1$ -->
    <g style="fill: #e4e4ea" transform="translate(46.237007 72.690775) scale(0.0918 -0.0918)">
     <use xlink:href="#Newsreader16pt-Regular-66" transform="translate(0 0.40625)"/>
     <use xlink:href="#Newsreader16pt-Regular-69" transform="translate(38.699997 0.40625)"/>
     <use xlink:href="#Newsreader16pt-Regular-72" transform="translate(69.349991 0.40625)"/>
     <use xlink:href="#Newsreader16pt-Regular-6d" transform="translate(112.049988 0.40625)"/>
     <use xlink:href="#Newsreader16pt-Regular-20" transform="translate(202.5 0.40625)"/>
     <use xlink:href="#STIXGeneral-Italic-76" transform="translate(226.850006 0.40625)"/>
     <use xlink:href="#STIXGeneral-Regular-2212" transform="translate(285.689996 0.40625)"/>
     <use xlink:href="#STIXGeneral-Regular-31" transform="translate(368.629977 0.40625)"/>
    </g>
    <!-- (supplier) -->
    <g style="fill: #e4e4ea" transform="translate(45.199237 82.876559) scale(0.0918 -0.0918)">
     <defs>
      <path id="Newsreader16pt-Regular-28" d="M 883 1910 
Q 883 1574 928 1259 
Q 973 944 1077 637 
Q 1181 330 1361 16 
Q 1542 -298 1811 -634 
L 1606 -826 
Q 1232 -438 982 -99 
Q 733 240 582 560 
Q 432 880 368 1209 
Q 304 1539 304 1910 
Q 304 2278 368 2608 
Q 432 2938 582 3259 
Q 733 3581 982 3918 
Q 1232 4256 1606 4646 
L 1811 4451 
Q 1542 4115 1361 3801 
Q 1181 3488 1077 3181 
Q 973 2874 928 2560 
Q 883 2246 883 1910 
z
" transform="scale(0.015625)"/>
      <path id="Newsreader16pt-Regular-29" d="M 1123 1910 
Q 1123 2246 1078 2561 
Q 1034 2877 930 3182 
Q 826 3488 646 3803 
Q 467 4118 195 4454 
L 403 4646 
Q 774 4259 1025 3920 
Q 1277 3581 1425 3261 
Q 1574 2941 1638 2611 
Q 1702 2282 1702 1910 
Q 1702 1542 1638 1212 
Q 1574 883 1425 561 
Q 1277 240 1025 -97 
Q 774 -435 403 -826 
L 195 -630 
Q 467 -294 646 19 
Q 826 333 930 640 
Q 1034 947 1078 1260 
Q 1123 1574 1123 1910 
z
" transform="scale(0.015625)"/>
     </defs>
     <use xlink:href="#Newsreader16pt-Regular-28"/>
     <use xlink:href="#Newsreader16pt-Regular-73" x="31.350006"/>
     <use xlink:href="#Newsreader16pt-Regular-75" x="75.900009"/>
     <use xlink:href="#Newsreader16pt-Regular-70" x="134.600021"/>
     <use xlink:href="#Newsreader16pt-Regular-70" x="195.750031"/>
     <use xlink:href="#Newsreader16pt-Regular-6c" x="256.90004"/>
     <use xlink:href="#Newsreader16pt-Regular-69" x="286.300034"/>
     <use xlink:href="#Newsreader16pt-Regular-65" x="316.950027"/>
     <use xlink:href="#Newsreader16pt-Regular-72" x="367.550034"/>
     <use xlink:href="#Newsreader16pt-Regular-29" x="410.250031"/>
    </g>
   </g>
   <g id="text_7">
    <!-- firm $v$ -->
    <g style="fill: #e4e4ea" transform="translate(167.066125 77.783667) scale(0.0918 -0.0918)">
     <use xlink:href="#Newsreader16pt-Regular-66" transform="translate(0 0.40625)"/>
     <use xlink:href="#Newsreader16pt-Regular-69" transform="translate(38.699997 0.40625)"/>
     <use xlink:href="#Newsreader16pt-Regular-72" transform="translate(69.349991 0.40625)"/>
     <use xlink:href="#Newsreader16pt-Regular-6d" transform="translate(112.049988 0.40625)"/>
     <use xlink:href="#Newsreader16pt-Regular-20" transform="translate(202.5 0.40625)"/>
     <use xlink:href="#STIXGeneral-Italic-76" transform="translate(226.850006 0.40625)"/>
    </g>
   </g>
   <g id="text_8">
    <!-- firm $v+1$ -->
    <g style="fill: #e4e4ea" transform="translate(274.400643 72.690775) scale(0.0918 -0.0918)">
     <use xlink:href="#Newsreader16pt-Regular-66" transform="translate(0 0.40625)"/>
     <use xlink:href="#Newsreader16pt-Regular-69" transform="translate(38.699997 0.40625)"/>
     <use xlink:href="#Newsreader16pt-Regular-72" transform="translate(69.349991 0.40625)"/>
     <use xlink:href="#Newsreader16pt-Regular-6d" transform="translate(112.049988 0.40625)"/>
     <use xlink:href="#Newsreader16pt-Regular-20" transform="translate(202.5 0.40625)"/>
     <use xlink:href="#STIXGeneral-Italic-76" transform="translate(226.850006 0.40625)"/>
     <use xlink:href="#STIXGeneral-Regular-2b" transform="translate(285.689996 0.40625)"/>
     <use xlink:href="#STIXGeneral-Regular-31" transform="translate(368.629977 0.40625)"/>
    </g>
    <!-- (customer) -->
    <g style="fill: #e4e4ea" transform="translate(271.008346 82.876559) scale(0.0918 -0.0918)">
     <use xlink:href="#Newsreader16pt-Regular-28"/>
     <use xlink:href="#Newsreader16pt-Regular-63" x="31.350006"/>
     <use xlink:href="#Newsreader16pt-Regular-75" x="79.500015"/>
     <use xlink:href="#Newsreader16pt-Regular-73" x="138.200027"/>
     <use xlink:href="#Newsreader16pt-Regular-74" x="182.750031"/>
     <use xlink:href="#Newsreader16pt-Regular-6f" x="220.90004"/>
     <use xlink:href="#Newsreader16pt-Regular-6d" x="277.800049"/>
     <use xlink:href="#Newsreader16pt-Regular-65" x="368.250061"/>
     <use xlink:href="#Newsreader16pt-Regular-72" x="418.850067"/>
     <use xlink:href="#Newsreader16pt-Regular-29" x="461.550064"/>
    </g>
   </g>
   <g id="text_9">
    <!-- households -->
    <g style="fill: #e4e4ea" transform="translate(155.48785 145.27416) scale(0.0918 -0.0918)">
     <use xlink:href="#Newsreader16pt-Regular-68"/>
     <use xlink:href="#Newsreader16pt-Regular-6f" x="61.050003"/>
     <use xlink:href="#Newsreader16pt-Regular-75" x="117.950012"/>
     <use xlink:href="#Newsreader16pt-Regular-73" x="176.650024"/>
     <use xlink:href="#Newsreader16pt-Regular-65" x="221.200027"/>
     <use xlink:href="#Newsreader16pt-Regular-68" x="271.800034"/>
     <use xlink:href="#Newsreader16pt-Regular-6f" x="332.850037"/>
     <use xlink:href="#Newsreader16pt-Regular-6c" x="389.750046"/>
     <use xlink:href="#Newsreader16pt-Regular-64" x="419.15004"/>
     <use xlink:href="#Newsreader16pt-Regular-73" x="479.700043"/>
    </g>
   </g>
   <g id="text_10">
    <!-- input $i^v_t=o^v_{t-\tau}$, delivered after lag $\tau$ -->
    <g style="fill: #cdcdd5" transform="translate(54.599616 27.842899) scale(0.0864 -0.0864)">
     <defs>
      <path id="STIXGeneral-Italic-69" d="M 1690 3834 
Q 1690 3699 1597 3603 
Q 1504 3507 1376 3507 
Q 1235 3507 1152 3600 
Q 1069 3693 1069 3846 
Q 1069 3994 1155 4090 
Q 1242 4186 1370 4186 
Q 1498 4186 1594 4080 
Q 1690 3974 1690 3834 
z
M 1421 730 
L 1504 659 
Q 1235 243 1049 86 
Q 864 -70 627 -70 
Q 314 -70 314 282 
Q 314 467 454 992 
L 762 2125 
Q 819 2330 819 2406 
Q 819 2502 745 2528 
Q 672 2554 410 2560 
L 410 2662 
Q 704 2688 1434 2822 
L 1459 2803 
L 858 608 
Q 794 390 794 326 
Q 794 230 883 230 
Q 1043 230 1421 730 
z
" transform="scale(0.015625)"/>
      <path id="Newsreader16pt-Regular-76" d="M 3245 2672 
L 2112 -64 
L 1731 -64 
L 470 2627 
L 26 2787 
L 26 3002 
L 1552 3002 
L 1552 2787 
L 1088 2650 
L 2090 477 
L 2013 477 
L 2867 2662 
L 2413 2787 
L 2413 3002 
L 3616 3002 
L 3616 2787 
L 3245 2672 
z
" transform="scale(0.015625)"/>
     </defs>
     <use xlink:href="#Newsreader16pt-Regular-69" transform="translate(0 0.40625)"/>
     <use xlink:href="#Newsreader16pt-Regular-6e" transform="translate(30.649994 0.40625)"/>
     <use xlink:href="#Newsreader16pt-Regular-70" transform="translate(92.949997 0.40625)"/>
     <use xlink:href="#Newsreader16pt-Regular-75" transform="translate(154.100006 0.40625)"/>
     <use xlink:href="#Newsreader16pt-Regular-74" transform="translate(212.800018 0.40625)"/>
     <use xlink:href="#Newsreader16pt-Regular-20" transform="translate(250.950027 0.40625)"/>
     <use xlink:href="#STIXGeneral-Italic-69" transform="translate(275.300034 0.40625)"/>
     <use xlink:href="#STIXGeneral-Italic-76" transform="translate(313.748771 35.68125) scale(0.7)"/>
     <use xlink:href="#STIXGeneral-Italic-74" transform="translate(303.100021 -26.05) scale(0.7)"/>
     <use xlink:href="#STIXGeneral-Regular-3d" transform="translate(363.678138 0.40625)"/>
     <use xlink:href="#STIXGeneral-Italic-6f" transform="translate(446.61812 0.40625)"/>
     <use xlink:href="#STIXGeneral-Italic-76" transform="translate(502.791229 35.68125) scale(0.7)"/>
     <use xlink:href="#STIXGeneral-Italic-74" transform="translate(496.618104 -26.05) scale(0.7)"/>
     <use xlink:href="#STIXGeneral-Regular-2212" transform="translate(526.186093 -26.05) scale(0.7)"/>
     <use xlink:href="#STIXGeneral-Italic-3c4" transform="translate(584.24408 -26.05) scale(0.7)"/>
     <use xlink:href="#Newsreader16pt-Regular-2c" transform="translate(617.353444 0.40625)"/>
     <use xlink:href="#Newsreader16pt-Regular-20" transform="translate(642.853444 0.40625)"/>
     <use xlink:href="#Newsreader16pt-Regular-64" transform="translate(667.20345 0.40625)"/>
     <use xlink:href="#Newsreader16pt-Regular-65" transform="translate(727.753453 0.40625)"/>
     <use xlink:href="#Newsreader16pt-Regular-6c" transform="translate(778.353459 0.40625)"/>
     <use xlink:href="#Newsreader16pt-Regular-69" transform="translate(807.753453 0.40625)"/>
     <use xlink:href="#Newsreader16pt-Regular-76" transform="translate(838.403447 0.40625)"/>
     <use xlink:href="#Newsreader16pt-Regular-65" transform="translate(897.003453 0.40625)"/>
     <use xlink:href="#Newsreader16pt-Regular-72" transform="translate(947.603459 0.40625)"/>
     <use xlink:href="#Newsreader16pt-Regular-65" transform="translate(990.303456 0.40625)"/>
     <use xlink:href="#Newsreader16pt-Regular-64" transform="translate(1040.903463 0.40625)"/>
     <use xlink:href="#Newsreader16pt-Regular-20" transform="translate(1101.453466 0.40625)"/>
     <use xlink:href="#Newsreader16pt-Regular-61" transform="translate(1125.803472 0.40625)"/>
     <use xlink:href="#Newsreader16pt-Regular-66" transform="translate(1177.253484 0.40625)"/>
     <use xlink:href="#Newsreader16pt-Regular-74" transform="translate(1215.953481 0.40625)"/>
     <use xlink:href="#Newsreader16pt-Regular-65" transform="translate(1254.10349 0.40625)"/>
     <use xlink:href="#Newsreader16pt-Regular-72" transform="translate(1304.703496 0.40625)"/>
     <use xlink:href="#Newsreader16pt-Regular-20" transform="translate(1347.403493 0.40625)"/>
     <use xlink:href="#Newsreader16pt-Regular-6c" transform="translate(1371.753499 0.40625)"/>
     <use xlink:href="#Newsreader16pt-Regular-61" transform="translate(1401.153493 0.40625)"/>
     <use xlink:href="#Newsreader16pt-Regular-67" transform="translate(1452.603505 0.40625)"/>
     <use xlink:href="#Newsreader16pt-Regular-20" transform="translate(1506.303517 0.40625)"/>
     <use xlink:href="#STIXGeneral-Italic-3c4" transform="translate(1530.653524 0.40625)"/>
    </g>
   </g>
   <g id="text_11">
    <!-- deliveries $d^v_t=o^{v+1}_{t-\tau}$ -->
    <g style="fill: #cdcdd5" transform="translate(199.310234 27.842899) scale(0.0864 -0.0864)">
     <defs>
      <path id="STIXGeneral-Italic-64" d="M 3334 4371 
L 3373 4333 
L 3123 3360 
L 2739 1958 
Q 2323 429 2323 384 
Q 2323 256 2438 256 
Q 2522 256 2614 336 
Q 2707 416 2963 710 
L 3040 646 
Q 2547 -83 2099 -83 
Q 1978 -83 1907 -6 
Q 1837 70 1837 205 
Q 1837 397 1920 774 
Q 1645 307 1379 118 
Q 1114 -70 781 -70 
Q 461 -70 278 125 
Q 96 320 96 678 
Q 96 1440 713 2131 
Q 1331 2822 1965 2822 
Q 2163 2822 2256 2732 
Q 2349 2643 2381 2451 
L 2387 2451 
L 2675 3494 
Q 2765 3808 2765 3949 
Q 2765 4051 2694 4076 
Q 2624 4102 2355 4115 
L 2355 4224 
Q 2848 4269 3334 4371 
z
M 2278 2310 
Q 2278 2477 2185 2576 
Q 2093 2675 1978 2675 
Q 1677 2675 1395 2381 
Q 1075 2042 864 1571 
Q 653 1101 653 704 
Q 653 486 752 361 
Q 851 237 1024 237 
Q 1312 237 1606 550 
Q 1901 864 2089 1350 
Q 2278 1837 2278 2310 
z
" transform="scale(0.015625)"/>
     </defs>
     <use xlink:href="#Newsreader16pt-Regular-64" transform="translate(0 0.409375)"/>
     <use xlink:href="#Newsreader16pt-Regular-65" transform="translate(60.550003 0.409375)"/>
     <use xlink:href="#Newsreader16pt-Regular-6c" transform="translate(111.150009 0.409375)"/>
     <use xlink:href="#Newsreader16pt-Regular-69" transform="translate(140.550003 0.409375)"/>
     <use xlink:href="#Newsreader16pt-Regular-76" transform="translate(171.199997 0.409375)"/>
     <use xlink:href="#Newsreader16pt-Regular-65" transform="translate(229.800003 0.409375)"/>
     <use xlink:href="#Newsreader16pt-Regular-72" transform="translate(280.400009 0.409375)"/>
     <use xlink:href="#Newsreader16pt-Regular-69" transform="translate(323.100006 0.409375)"/>
     <use xlink:href="#Newsreader16pt-Regular-65" transform="translate(353.75 0.409375)"/>
     <use xlink:href="#Newsreader16pt-Regular-73" transform="translate(404.350006 0.409375)"/>
     <use xlink:href="#Newsreader16pt-Regular-20" transform="translate(448.900009 0.409375)"/>
     <use xlink:href="#STIXGeneral-Italic-64" transform="translate(473.250015 0.409375)"/>
     <use xlink:href="#STIXGeneral-Italic-76" transform="translate(534.505781 35.684375) scale(0.7)"/>
     <use xlink:href="#STIXGeneral-Italic-74" transform="translate(523.25 -26.046875) scale(0.7)"/>
     <use xlink:href="#STIXGeneral-Regular-3d" transform="translate(584.435148 0.409375)"/>
     <use xlink:href="#STIXGeneral-Italic-6f" transform="translate(667.375129 0.409375)"/>
     <use xlink:href="#STIXGeneral-Italic-76" transform="translate(723.548239 35.684375) scale(0.7)"/>
     <use xlink:href="#STIXGeneral-Regular-2b" transform="translate(764.736232 35.684375) scale(0.7)"/>
     <use xlink:href="#STIXGeneral-Regular-31" transform="translate(822.794219 35.684375) scale(0.7)"/>
     <use xlink:href="#STIXGeneral-Italic-74" transform="translate(717.375114 -26.046875) scale(0.7)"/>
     <use xlink:href="#STIXGeneral-Regular-2212" transform="translate(746.943103 -26.046875) scale(0.7)"/>
     <use xlink:href="#STIXGeneral-Italic-3c4" transform="translate(805.00109 -26.046875) scale(0.7)"/>
    </g>
   </g>
   <g id="text_12">
    <!-- quote $P^{v-1}_t$ -->
    <g style="fill: #d65749" transform="translate(99.605916 63.831769) scale(0.0918 -0.0918)">
     <defs>
      <path id="Newsreader16pt-Regular-71" d="M 902 1510 
Q 902 1142 1020 892 
Q 1139 643 1361 520 
Q 1584 397 1898 397 
Q 2179 397 2438 469 
Q 2698 541 2944 694 
L 2944 525 
Q 2678 342 2481 227 
Q 2285 112 2136 49 
Q 1987 -13 1868 -38 
Q 1750 -64 1642 -64 
Q 1197 -64 896 113 
Q 595 291 441 612 
Q 288 934 288 1366 
Q 288 1882 507 2264 
Q 726 2646 1107 2856 
Q 1488 3066 1971 3066 
Q 2157 3066 2328 3029 
Q 2499 2992 2664 2910 
Q 2829 2829 2986 2688 
L 2666 2698 
L 3232 3059 
L 3360 3008 
L 3251 2314 
L 3251 -1174 
L 3770 -1315 
L 3770 -1526 
L 2122 -1526 
L 2122 -1315 
L 2701 -1178 
L 2701 2022 
Q 2701 2333 2504 2523 
Q 2307 2714 1888 2714 
Q 1571 2714 1352 2568 
Q 1133 2422 1017 2153 
Q 902 1885 902 1510 
z
" transform="scale(0.015625)"/>
     </defs>
     <use xlink:href="#Newsreader16pt-Regular-71" transform="translate(0 0.409375)"/>
     <use xlink:href="#Newsreader16pt-Regular-75" transform="translate(59 0.409375)"/>
     <use xlink:href="#Newsreader16pt-Regular-6f" transform="translate(117.700012 0.409375)"/>
     <use xlink:href="#Newsreader16pt-Regular-74" transform="translate(174.600021 0.409375)"/>
     <use xlink:href="#Newsreader16pt-Regular-65" transform="translate(212.750031 0.409375)"/>
     <use xlink:href="#Newsreader16pt-Regular-20" transform="translate(263.350037 0.409375)"/>
     <use xlink:href="#STIXGeneral-Italic-50" transform="translate(287.700043 0.409375)"/>
     <use xlink:href="#STIXGeneral-Italic-76" transform="translate(359.425815 35.684375) scale(0.7)"/>
     <use xlink:href="#STIXGeneral-Regular-2212" transform="translate(400.613808 35.684375) scale(0.7)"/>
     <use xlink:href="#STIXGeneral-Regular-31" transform="translate(458.671795 35.684375) scale(0.7)"/>
     <use xlink:href="#STIXGeneral-Italic-74" transform="translate(348.800034 -26.046875) scale(0.7)"/>
    </g>
   </g>
   <g id="text_13">
    <!-- order $o^v_t$ -->
    <g style="fill: #3984da" transform="translate(105.527016 91.391315) scale(0.0918 -0.0918)">
     <use xlink:href="#Newsreader16pt-Regular-6f" transform="translate(0 0.40625)"/>
     <use xlink:href="#Newsreader16pt-Regular-72" transform="translate(56.900009 0.40625)"/>
     <use xlink:href="#Newsreader16pt-Regular-64" transform="translate(99.600006 0.40625)"/>
     <use xlink:href="#Newsreader16pt-Regular-65" transform="translate(160.150009 0.40625)"/>
     <use xlink:href="#Newsreader16pt-Regular-72" transform="translate(210.750015 0.40625)"/>
     <use xlink:href="#Newsreader16pt-Regular-20" transform="translate(253.450012 0.40625)"/>
     <use xlink:href="#STIXGeneral-Italic-6f" transform="translate(277.800018 0.40625)"/>
     <use xlink:href="#STIXGeneral-Italic-76" transform="translate(333.973128 35.68125) scale(0.7)"/>
     <use xlink:href="#STIXGeneral-Italic-74" transform="translate(327.800003 -26.05) scale(0.7)"/>
    </g>
   </g>
   <g id="text_14">
    <!-- quote $P^v_t$ -->
    <g style="fill: #d65749" transform="translate(218.461334 63.831769) scale(0.0918 -0.0918)">
     <use xlink:href="#Newsreader16pt-Regular-71" transform="translate(0 0.859375)"/>
     <use xlink:href="#Newsreader16pt-Regular-75" transform="translate(59 0.859375)"/>
     <use xlink:href="#Newsreader16pt-Regular-6f" transform="translate(117.700012 0.859375)"/>
     <use xlink:href="#Newsreader16pt-Regular-74" transform="translate(174.600021 0.859375)"/>
     <use xlink:href="#Newsreader16pt-Regular-65" transform="translate(212.750031 0.859375)"/>
     <use xlink:href="#Newsreader16pt-Regular-20" transform="translate(263.350037 0.859375)"/>
     <use xlink:href="#STIXGeneral-Italic-50" transform="translate(287.700043 0.859375)"/>
     <use xlink:href="#STIXGeneral-Italic-76" transform="translate(359.425815 36.134375) scale(0.7)"/>
     <use xlink:href="#STIXGeneral-Italic-74" transform="translate(348.800034 -25.596875) scale(0.7)"/>
    </g>
   </g>
   <g id="text_15">
    <!-- order $o^{v+1}_t$ -->
    <g style="fill: #3984da" transform="translate(214.881134 92.309315) scale(0.0918 -0.0918)">
     <use xlink:href="#Newsreader16pt-Regular-6f" transform="translate(0 0.409375)"/>
     <use xlink:href="#Newsreader16pt-Regular-72" transform="translate(56.900009 0.409375)"/>
     <use xlink:href="#Newsreader16pt-Regular-64" transform="translate(99.600006 0.409375)"/>
     <use xlink:href="#Newsreader16pt-Regular-65" transform="translate(160.150009 0.409375)"/>
     <use xlink:href="#Newsreader16pt-Regular-72" transform="translate(210.750015 0.409375)"/>
     <use xlink:href="#Newsreader16pt-Regular-20" transform="translate(253.450012 0.409375)"/>
     <use xlink:href="#STIXGeneral-Italic-6f" transform="translate(277.800018 0.409375)"/>
     <use xlink:href="#STIXGeneral-Italic-76" transform="translate(333.973128 35.684375) scale(0.7)"/>
     <use xlink:href="#STIXGeneral-Regular-2b" transform="translate(375.161121 35.684375) scale(0.7)"/>
     <use xlink:href="#STIXGeneral-Regular-31" transform="translate(433.219108 35.684375) scale(0.7)"/>
     <use xlink:href="#STIXGeneral-Italic-74" transform="translate(327.800003 -26.046875) scale(0.7)"/>
    </g>
   </g>
  </g>
  <g id="axes_2">
   <g id="patch_15">
    <path d="M 19.350925 356.829 
L 339.750925 356.829 
L 339.750925 202.254 
L 19.350925 202.254 
L 19.350925 356.829 
z
" style="fill: none; opacity: 0"/>
   </g>
   <g id="matplotlib.axis_1">
    <g id="text_16">
     <!-- quantity (log deviation from steady state) -->
     <g style="fill: #e4e4ea" transform="translate(86.517616 370.885113) scale(0.0972 -0.0972)">
      <use xlink:href="#Newsreader16pt-Regular-71"/>
      <use xlink:href="#Newsreader16pt-Regular-75" x="59"/>
      <use xlink:href="#Newsreader16pt-Regular-61" x="117.700012"/>
      <use xlink:href="#Newsreader16pt-Regular-6e" x="169.150024"/>
      <use xlink:href="#Newsreader16pt-Regular-74" x="231.450027"/>
      <use xlink:href="#Newsreader16pt-Regular-69" x="269.600037"/>
      <use xlink:href="#Newsreader16pt-Regular-74" x="300.250031"/>
      <use xlink:href="#Newsreader16pt-Regular-79" x="338.40004"/>
      <use xlink:href="#Newsreader16pt-Regular-20" x="395.700043"/>
      <use xlink:href="#Newsreader16pt-Regular-28" x="420.050049"/>
      <use xlink:href="#Newsreader16pt-Regular-6c" x="451.400055"/>
      <use xlink:href="#Newsreader16pt-Regular-6f" x="480.800049"/>
      <use xlink:href="#Newsreader16pt-Regular-67" x="537.700058"/>
      <use xlink:href="#Newsreader16pt-Regular-20" x="591.40007"/>
      <use xlink:href="#Newsreader16pt-Regular-64" x="615.750076"/>
      <use xlink:href="#Newsreader16pt-Regular-65" x="676.300079"/>
      <use xlink:href="#Newsreader16pt-Regular-76" x="726.900085"/>
      <use xlink:href="#Newsreader16pt-Regular-69" x="785.500092"/>
      <use xlink:href="#Newsreader16pt-Regular-61" x="816.150085"/>
      <use xlink:href="#Newsreader16pt-Regular-74" x="867.600098"/>
      <use xlink:href="#Newsreader16pt-Regular-69" x="905.750107"/>
      <use xlink:href="#Newsreader16pt-Regular-6f" x="936.400101"/>
      <use xlink:href="#Newsreader16pt-Regular-6e" x="993.30011"/>
      <use xlink:href="#Newsreader16pt-Regular-20" x="1055.600113"/>
      <use xlink:href="#Newsreader16pt-Regular-66" x="1079.950119"/>
      <use xlink:href="#Newsreader16pt-Regular-72" x="1118.650116"/>
      <use xlink:href="#Newsreader16pt-Regular-6f" x="1161.350113"/>
      <use xlink:href="#Newsreader16pt-Regular-6d" x="1218.250122"/>
      <use xlink:href="#Newsreader16pt-Regular-20" x="1308.700134"/>
      <use xlink:href="#Newsreader16pt-Regular-73" x="1333.05014"/>
      <use xlink:href="#Newsreader16pt-Regular-74" x="1377.600143"/>
      <use xlink:href="#Newsreader16pt-Regular-65" x="1415.750153"/>
      <use xlink:href="#Newsreader16pt-Regular-61" x="1466.350159"/>
      <use xlink:href="#Newsreader16pt-Regular-64" x="1517.800171"/>
      <use xlink:href="#Newsreader16pt-Regular-79" x="1578.350174"/>
      <use xlink:href="#Newsreader16pt-Regular-20" x="1635.650177"/>
      <use xlink:href="#Newsreader16pt-Regular-73" x="1660.000183"/>
      <use xlink:href="#Newsreader16pt-Regular-74" x="1704.550186"/>
      <use xlink:href="#Newsreader16pt-Regular-61" x="1742.700195"/>
      <use xlink:href="#Newsreader16pt-Regular-74" x="1794.150208"/>
      <use xlink:href="#Newsreader16pt-Regular-65" x="1832.300217"/>
      <use xlink:href="#Newsreader16pt-Regular-29" x="1882.900223"/>
     </g>
    </g>
   </g>
   <g id="matplotlib.axis_2">
    <g id="text_17">
     <!-- price (log deviation) -->
     <g style="fill: #e4e4ea" transform="translate(9.936113 324.472959) rotate(-90) scale(0.0972 -0.0972)">
      <use xlink:href="#Newsreader16pt-Regular-70"/>
      <use xlink:href="#Newsreader16pt-Regular-72" x="61.150009"/>
      <use xlink:href="#Newsreader16pt-Regular-69" x="103.850006"/>
      <use xlink:href="#Newsreader16pt-Regular-63" x="134.5"/>
      <use xlink:href="#Newsreader16pt-Regular-65" x="182.650009"/>
      <use xlink:href="#Newsreader16pt-Regular-20" x="233.250015"/>
      <use xlink:href="#Newsreader16pt-Regular-28" x="257.600021"/>
      <use xlink:href="#Newsreader16pt-Regular-6c" x="288.950027"/>
      <use xlink:href="#Newsreader16pt-Regular-6f" x="318.350021"/>
      <use xlink:href="#Newsreader16pt-Regular-67" x="375.250031"/>
      <use xlink:href="#Newsreader16pt-Regular-20" x="428.950043"/>
      <use xlink:href="#Newsreader16pt-Regular-64" x="453.300049"/>
      <use xlink:href="#Newsreader16pt-Regular-65" x="513.850052"/>
      <use xlink:href="#Newsreader16pt-Regular-76" x="564.450058"/>
      <use xlink:href="#Newsreader16pt-Regular-69" x="623.050064"/>
      <use xlink:href="#Newsreader16pt-Regular-61" x="653.700058"/>
      <use xlink:href="#Newsreader16pt-Regular-74" x="705.15007"/>
      <use xlink:href="#Newsreader16pt-Regular-69" x="743.300079"/>
      <use xlink:href="#Newsreader16pt-Regular-6f" x="773.950073"/>
      <use xlink:href="#Newsreader16pt-Regular-6e" x="830.850082"/>
      <use xlink:href="#Newsreader16pt-Regular-29" x="893.150085"/>
     </g>
    </g>
   </g>
   <g id="line2d_5">
    <path d="M 19.350925 241.160633 
L 339.750925 351.571347 
L 339.750925 351.571347 
" clip-path="url(#pec993be548)" style="fill: none; stroke: #3984da; stroke-width: 2; stroke-linecap: square"/>
   </g>
   <g id="line2d_6">
    <path d="M 19.350925 220.13002 
L 339.750925 330.540735 
L 339.750925 330.540735 
" clip-path="url(#pec993be548)" style="fill: none; stroke-dasharray: 4.44,1.92; stroke-dashoffset: 0; stroke: #3984da; stroke-width: 1.2"/>
   </g>
   <g id="line2d_7">
    <path d="M 210.065211 356.829 
L 210.065211 202.254 
" clip-path="url(#pec993be548)" style="fill: none; stroke: #d65749; stroke-width: 2; stroke-linecap: square"/>
   </g>
   <g id="line2d_8">
    <path d="M 19.350925 293.737163 
L 339.750925 293.737163 
" clip-path="url(#pec993be548)" style="fill: none; stroke-dasharray: 1,1.65; stroke-dashoffset: 0; stroke: #797984"/>
   </g>
   <g id="line2d_9">
    <defs>
     <path id="m9ce991dab2" d="M 0 3.5 
C 0.928211 3.5 1.81853 3.131218 2.474874 2.474874 
C 3.131218 1.81853 3.5 0.928211 3.5 0 
C 3.5 -0.928211 3.131218 -1.81853 2.474874 -2.474874 
C 1.81853 -3.131218 0.928211 -3.5 0 -3.5 
C -0.928211 -3.5 -1.81853 -3.131218 -2.474874 -2.474874 
C -3.131218 -1.81853 -3.5 -0.928211 -3.5 0 
C -3.5 0.928211 -3.131218 1.81853 -2.474874 2.474874 
C -1.81853 3.131218 -0.928211 3.5 0 3.5 
z
" style="stroke: #ffffff"/>
    </defs>
    <g clip-path="url(#pec993be548)">
     <use xlink:href="#m9ce991dab2" x="171.922354" y="293.737163" style="fill: #4f92df; stroke: #ffffff"/>
    </g>
   </g>
   <g id="line2d_10">
    <defs>
     <path id="m718fa46d97" d="M 0 3.5 
C 0.928211 3.5 1.81853 3.131218 2.474874 2.474874 
C 3.131218 1.81853 3.5 0.928211 3.5 0 
C 3.5 -0.928211 3.131218 -1.81853 2.474874 -2.474874 
C 1.81853 -3.131218 0.928211 -3.5 0 -3.5 
C -0.928211 -3.5 -1.81853 -3.131218 -2.474874 -2.474874 
C -3.131218 -1.81853 -3.5 -0.928211 -3.5 0 
C -3.5 0.928211 -3.131218 1.81853 -2.474874 2.474874 
C -1.81853 3.131218 -0.928211 3.5 0 3.5 
z
" style="stroke: #ffffff"/>
    </defs>
    <g clip-path="url(#pec993be548)">
     <use xlink:href="#m718fa46d97" x="210.065211" y="293.737163" style="fill: #da6559; stroke: #ffffff"/>
    </g>
   </g>
   <g id="line2d_11">
    <path d="M 19.350925 325.283082 
L 339.750925 325.283082 
" clip-path="url(#pec993be548)" style="fill: none; stroke-dasharray: 1.6,2.4; stroke-dashoffset: 0; stroke: #797984; stroke-width: 0.8"/>
   </g>
   <g id="patch_16">
    <path d="M 19.350925 356.829 
L 19.350925 202.254 
" style="fill: none; stroke: #44444c; stroke-width: 0.8; stroke-linejoin: miter; stroke-linecap: square"/>
   </g>
   <g id="patch_17">
    <path d="M 19.350925 356.829 
L 339.750925 356.829 
" style="fill: none; stroke: #44444c; stroke-width: 0.8; stroke-linejoin: miter; stroke-linecap: square"/>
   </g>
   <g id="patch_18">
    <path d="M 175.037859 306.355531 
Q 190.993137 306.355531 206.948415 306.355531 
" style="fill: none; stroke: #222222; stroke-linecap: round"/>
    <path d="M 179.357859 308.515531 
L 175.037859 306.355531 
L 179.357859 304.195531 
" style="fill: none; stroke: #222222; stroke-linecap: round"/>
    <path d="M 202.628415 304.195531 
L 206.948415 306.355531 
L 202.628415 308.515531 
" style="fill: none; stroke: #222222; stroke-linecap: round"/>
   </g>
   <g id="text_18">
    <!-- mismatch -->
    <g style="fill: #e4e4ea" transform="translate(171.341157 319.988345) scale(0.0864 -0.0864)">
     <use xlink:href="#Newsreader16pt-Regular-6d"/>
     <use xlink:href="#Newsreader16pt-Regular-69" x="90.450012"/>
     <use xlink:href="#Newsreader16pt-Regular-73" x="121.100006"/>
     <use xlink:href="#Newsreader16pt-Regular-6d" x="165.650009"/>
     <use xlink:href="#Newsreader16pt-Regular-61" x="256.100021"/>
     <use xlink:href="#Newsreader16pt-Regular-74" x="307.550034"/>
     <use xlink:href="#Newsreader16pt-Regular-63" x="345.700043"/>
     <use xlink:href="#Newsreader16pt-Regular-68" x="393.850052"/>
    </g>
    <!-- $a^v_{t-\tau}+i^v_t-d^v_t-y^{H,v}_t$ -->
    <g style="fill: #e4e4ea" transform="translate(156.520182 330.446525) scale(0.0864 -0.0864)">
     <defs>
      <path id="STIXGeneral-Italic-61" d="M 2963 710 
L 3046 640 
Q 2688 205 2518 70 
Q 2349 -64 2157 -64 
Q 1901 -64 1901 198 
Q 1901 358 2048 934 
Q 1690 397 1389 163 
Q 1088 -70 749 -70 
Q 467 -70 288 125 
Q 109 320 109 672 
Q 109 1158 387 1664 
Q 666 2170 1094 2496 
Q 1523 2822 1939 2822 
Q 2368 2822 2451 2451 
L 2522 2758 
L 2541 2778 
L 2931 2822 
L 2976 2803 
Q 2970 2778 2938 2669 
Q 2368 595 2368 346 
Q 2368 262 2458 262 
Q 2554 262 2790 525 
L 2963 710 
z
M 2336 2310 
Q 2336 2477 2240 2579 
Q 2144 2682 1978 2682 
Q 1542 2682 1139 2093 
Q 928 1779 787 1395 
Q 646 1011 646 717 
Q 646 243 1030 243 
Q 1408 243 1843 870 
Q 2336 1581 2336 2310 
z
" transform="scale(0.015625)"/>
     </defs>
     <use xlink:href="#STIXGeneral-Italic-61" transform="translate(0 0.017188)"/>
     <use xlink:href="#STIXGeneral-Italic-76" transform="translate(56.273116 35.292188) scale(0.7)"/>
     <use xlink:href="#STIXGeneral-Italic-74" transform="translate(50.099991 -26.439062) scale(0.7)"/>
     <use xlink:href="#STIXGeneral-Regular-2212" transform="translate(79.66798 -26.439062) scale(0.7)"/>
     <use xlink:href="#STIXGeneral-Italic-3c4" transform="translate(137.725966 -26.439062) scale(0.7)"/>
     <use xlink:href="#STIXGeneral-Regular-2b" transform="translate(185.275327 0.017188)"/>
     <use xlink:href="#STIXGeneral-Italic-69" transform="translate(268.215308 0.017188)"/>
     <use xlink:href="#STIXGeneral-Italic-76" transform="translate(306.664046 35.292188) scale(0.7)"/>
     <use xlink:href="#STIXGeneral-Italic-74" transform="translate(296.015296 -26.439062) scale(0.7)"/>
     <use xlink:href="#STIXGeneral-Regular-2212" transform="translate(356.593413 0.017188)"/>
     <use xlink:href="#STIXGeneral-Italic-64" transform="translate(439.533394 0.017188)"/>
     <use xlink:href="#STIXGeneral-Italic-76" transform="translate(500.78916 35.292188) scale(0.7)"/>
     <use xlink:href="#STIXGeneral-Italic-74" transform="translate(489.533379 -26.439062) scale(0.7)"/>
     <use xlink:href="#STIXGeneral-Regular-2212" transform="translate(550.718527 0.017188)"/>
     <use xlink:href="#STIXGeneral-Italic-79" transform="translate(633.658508 0.017188)"/>
     <use xlink:href="#STIXGeneral-Italic-48" transform="translate(684.231627 35.292188) scale(0.7)"/>
     <use xlink:href="#STIXGeneral-Regular-2c" transform="translate(734.771614 35.292188) scale(0.7)"/>
     <use xlink:href="#STIXGeneral-Italic-76" transform="translate(762.379601 35.292188) scale(0.7)"/>
     <use xlink:href="#STIXGeneral-Italic-74" transform="translate(678.058502 -26.439062) scale(0.7)"/>
    </g>
   </g>
   <g id="text_19">
    <!-- demand $y^{H,v}_t$ -->
    <g style="fill: #3984da" transform="translate(268.812496 345.846355) scale(0.0918 -0.0918)">
     <use xlink:href="#Newsreader16pt-Regular-64" transform="translate(0 0.017188)"/>
     <use xlink:href="#Newsreader16pt-Regular-65" transform="translate(60.550003 0.017188)"/>
     <use xlink:href="#Newsreader16pt-Regular-6d" transform="translate(111.150009 0.017188)"/>
     <use xlink:href="#Newsreader16pt-Regular-61" transform="translate(201.600021 0.017188)"/>
     <use xlink:href="#Newsreader16pt-Regular-6e" transform="translate(253.050034 0.017188)"/>
     <use xlink:href="#Newsreader16pt-Regular-64" transform="translate(315.350037 0.017188)"/>
     <use xlink:href="#Newsreader16pt-Regular-20" transform="translate(375.90004 0.017188)"/>
     <use xlink:href="#STIXGeneral-Italic-79" transform="translate(400.250046 0.017188)"/>
     <use xlink:href="#STIXGeneral-Italic-48" transform="translate(450.823165 35.292188) scale(0.7)"/>
     <use xlink:href="#STIXGeneral-Regular-2c" transform="translate(501.363152 35.292188) scale(0.7)"/>
     <use xlink:href="#STIXGeneral-Italic-76" transform="translate(528.971139 35.292188) scale(0.7)"/>
     <use xlink:href="#STIXGeneral-Italic-74" transform="translate(444.65004 -26.439062) scale(0.7)"/>
    </g>
   </g>
   <g id="text_20">
    <!-- $q_t$ or $\eta^v_t$ up -->
    <g style="fill: #3984da" transform="translate(26.979496 215.607759) scale(0.0864 -0.0864)">
     <use xlink:href="#STIXGeneral-Italic-71" transform="translate(0 0.859375)"/>
     <use xlink:href="#STIXGeneral-Italic-74" transform="translate(49.999985 -12.36875) scale(0.7)"/>
     <use xlink:href="#Newsreader16pt-Regular-20" transform="translate(73.869351 0.859375)"/>
     <use xlink:href="#Newsreader16pt-Regular-6f" transform="translate(98.219357 0.859375)"/>
     <use xlink:href="#Newsreader16pt-Regular-72" transform="translate(155.119366 0.859375)"/>
     <use xlink:href="#Newsreader16pt-Regular-20" transform="translate(197.819363 0.859375)"/>
     <use xlink:href="#STIXGeneral-Italic-3b7" transform="translate(222.16937 0.859375)"/>
     <use xlink:href="#STIXGeneral-Italic-76" transform="translate(275.742488 36.134375) scale(0.7)"/>
     <use xlink:href="#STIXGeneral-Italic-74" transform="translate(269.569363 -25.596875) scale(0.7)"/>
     <use xlink:href="#Newsreader16pt-Regular-20" transform="translate(311.231859 0.859375)"/>
     <use xlink:href="#Newsreader16pt-Regular-75" transform="translate(335.581865 0.859375)"/>
     <use xlink:href="#Newsreader16pt-Regular-70" transform="translate(394.281877 0.859375)"/>
    </g>
   </g>
   <g id="text_21">
    <!-- supply -->
    <g style="fill: #d65749" transform="translate(213.879496 228.592943) scale(0.0864 -0.0864)">
     <use xlink:href="#Newsreader16pt-Regular-73"/>
     <use xlink:href="#Newsreader16pt-Regular-75" x="44.550003"/>
     <use xlink:href="#Newsreader16pt-Regular-70" x="103.250015"/>
     <use xlink:href="#Newsreader16pt-Regular-70" x="164.400024"/>
     <use xlink:href="#Newsreader16pt-Regular-6c" x="225.550034"/>
     <use xlink:href="#Newsreader16pt-Regular-79" x="254.950027"/>
    </g>
    <!-- $a^v_{t-\tau}+i^v_t$ -->
    <g style="fill: #d65749" transform="translate(213.879496 238.265963) scale(0.0864 -0.0864)">
     <use xlink:href="#STIXGeneral-Italic-61" transform="translate(0 0.859375)"/>
     <use xlink:href="#STIXGeneral-Italic-76" transform="translate(56.273116 36.134375) scale(0.7)"/>
     <use xlink:href="#STIXGeneral-Italic-74" transform="translate(50.099991 -25.596875) scale(0.7)"/>
     <use xlink:href="#STIXGeneral-Regular-2212" transform="translate(79.66798 -25.596875) scale(0.7)"/>
     <use xlink:href="#STIXGeneral-Italic-3c4" transform="translate(137.725966 -25.596875) scale(0.7)"/>
     <use xlink:href="#STIXGeneral-Regular-2b" transform="translate(185.275327 0.859375)"/>
     <use xlink:href="#STIXGeneral-Italic-69" transform="translate(268.215308 0.859375)"/>
     <use xlink:href="#STIXGeneral-Italic-76" transform="translate(306.664046 36.134375) scale(0.7)"/>
     <use xlink:href="#STIXGeneral-Italic-74" transform="translate(296.015296 -25.596875) scale(0.7)"/>
    </g>
    <!-- fixed by the order -->
    <g style="fill: #d65749" transform="translate(213.879496 248.211683) scale(0.0864 -0.0864)">
     <defs>
      <path id="Newsreader16pt-Regular-78" d="M 3066 371 
L 3475 214 
L 3475 0 
L 2013 0 
L 2013 214 
L 2416 346 
L 1645 1312 
L 1562 1408 
L 560 2634 
L 150 2787 
L 150 3002 
L 1613 3002 
L 1613 2787 
L 1210 2656 
L 1910 1773 
L 1984 1690 
L 3066 371 
z
M 1763 1341 
L 890 330 
L 1286 214 
L 1286 0 
L 118 0 
L 118 214 
L 467 333 
L 1562 1555 
L 1750 1709 
L 2592 2678 
L 2195 2787 
L 2195 3002 
L 3357 3002 
L 3357 2787 
L 3008 2672 
L 1952 1494 
L 1763 1341 
z
" transform="scale(0.015625)"/>
     </defs>
     <use xlink:href="#Newsreader16pt-Regular-66"/>
     <use xlink:href="#Newsreader16pt-Regular-69" x="38.699997"/>
     <use xlink:href="#Newsreader16pt-Regular-78" x="69.349991"/>
     <use xlink:href="#Newsreader16pt-Regular-65" x="124.949997"/>
     <use xlink:href="#Newsreader16pt-Regular-64" x="175.550003"/>
     <use xlink:href="#Newsreader16pt-Regular-20" x="236.100006"/>
     <use xlink:href="#Newsreader16pt-Regular-62" x="260.450012"/>
     <use xlink:href="#Newsreader16pt-Regular-79" x="319.700012"/>
     <use xlink:href="#Newsreader16pt-Regular-20" x="377.000015"/>
     <use xlink:href="#Newsreader16pt-Regular-74" x="401.350021"/>
     <use xlink:href="#Newsreader16pt-Regular-68" x="439.500031"/>
     <use xlink:href="#Newsreader16pt-Regular-65" x="500.550034"/>
     <use xlink:href="#Newsreader16pt-Regular-20" x="551.15004"/>
     <use xlink:href="#Newsreader16pt-Regular-6f" x="575.500046"/>
     <use xlink:href="#Newsreader16pt-Regular-72" x="632.400055"/>
     <use xlink:href="#Newsreader16pt-Regular-64" x="675.100052"/>
     <use xlink:href="#Newsreader16pt-Regular-65" x="735.650055"/>
     <use xlink:href="#Newsreader16pt-Regular-72" x="786.250061"/>
    </g>
    <!-- placed at $t-\tau$ -->
    <g style="fill: #d65749" transform="translate(213.879496 257.926823) scale(0.0864 -0.0864)">
     <use xlink:href="#Newsreader16pt-Regular-70" transform="translate(0 0.40625)"/>
     <use xlink:href="#Newsreader16pt-Regular-6c" transform="translate(61.150009 0.40625)"/>
     <use xlink:href="#Newsreader16pt-Regular-61" transform="translate(90.550003 0.40625)"/>
     <use xlink:href="#Newsreader16pt-Regular-63" transform="translate(142.000015 0.40625)"/>
     <use xlink:href="#Newsreader16pt-Regular-65" transform="translate(190.150024 0.40625)"/>
     <use xlink:href="#Newsreader16pt-Regular-64" transform="translate(240.750031 0.40625)"/>
     <use xlink:href="#Newsreader16pt-Regular-20" transform="translate(301.300034 0.40625)"/>
     <use xlink:href="#Newsreader16pt-Regular-61" transform="translate(325.65004 0.40625)"/>
     <use xlink:href="#Newsreader16pt-Regular-74" transform="translate(377.100052 0.40625)"/>
     <use xlink:href="#Newsreader16pt-Regular-20" transform="translate(415.250061 0.40625)"/>
     <use xlink:href="#STIXGeneral-Italic-74" transform="translate(439.600067 0.40625)"/>
     <use xlink:href="#STIXGeneral-Regular-2212" transform="translate(481.840051 0.40625)"/>
     <use xlink:href="#STIXGeneral-Italic-3c4" transform="translate(564.780032 0.40625)"/>
    </g>
   </g>
   <g id="text_22">
    <!-- price in force $\pi^v_t$ -->
    <g style="fill: #cdcdd5" transform="translate(26.979496 289.214902) scale(0.0864 -0.0864)">
     <use xlink:href="#Newsreader16pt-Regular-70" transform="translate(0 0.40625)"/>
     <use xlink:href="#Newsreader16pt-Regular-72" transform="translate(61.150009 0.40625)"/>
     <use xlink:href="#Newsreader16pt-Regular-69" transform="translate(103.850006 0.40625)"/>
     <use xlink:href="#Newsreader16pt-Regular-63" transform="translate(134.5 0.40625)"/>
     <use xlink:href="#Newsreader16pt-Regular-65" transform="translate(182.650009 0.40625)"/>
     <use xlink:href="#Newsreader16pt-Regular-20" transform="translate(233.250015 0.40625)"/>
     <use xlink:href="#Newsreader16pt-Regular-69" transform="translate(257.600021 0.40625)"/>
     <use xlink:href="#Newsreader16pt-Regular-6e" transform="translate(288.250015 0.40625)"/>
     <use xlink:href="#Newsreader16pt-Regular-20" transform="translate(350.550018 0.40625)"/>
     <use xlink:href="#Newsreader16pt-Regular-66" transform="translate(374.900024 0.40625)"/>
     <use xlink:href="#Newsreader16pt-Regular-6f" transform="translate(413.600021 0.40625)"/>
     <use xlink:href="#Newsreader16pt-Regular-72" transform="translate(470.500031 0.40625)"/>
     <use xlink:href="#Newsreader16pt-Regular-63" transform="translate(513.200027 0.40625)"/>
     <use xlink:href="#Newsreader16pt-Regular-65" transform="translate(561.350037 0.40625)"/>
     <use xlink:href="#Newsreader16pt-Regular-20" transform="translate(611.950043 0.40625)"/>
     <use xlink:href="#STIXGeneral-Italic-3c0" transform="translate(636.300049 0.40625)"/>
     <use xlink:href="#STIXGeneral-Italic-76" transform="translate(692.600824 35.68125) scale(0.7)"/>
     <use xlink:href="#STIXGeneral-Italic-74" transform="translate(686.700043 -26.05) scale(0.7)"/>
    </g>
   </g>
   <g id="patch_19">
    <path d="M 110.893782 291.737304 
Q 110.893782 283.223179 110.893782 274.709055 
" style="fill: none; stroke: #8a8a8a; stroke-width: 0.8; stroke-linecap: round"/>
   </g>
   <g id="patch_20">
    <path d="M 169.922089 293.737163 
Q 141.407713 293.737163 112.893337 293.737163 
" style="fill: none; stroke: #8a8a8a; stroke-width: 0.8; stroke-linecap: round"/>
   </g>
   <g id="text_23">
    <!-- slope $-1/\theta$ -->
    <g style="fill: #797984" transform="translate(121.171354 304.382051) scale(0.081 -0.081)">
     <defs>
      <path id="STIXGeneral-Regular-2f" d="M 1837 4326 
L 378 -90 
L -58 -90 
L 1408 4326 
L 1837 4326 
z
" transform="scale(0.015625)"/>
      <path id="STIXGeneral-Italic-3b8" d="M 3162 3270 
Q 3162 2534 2925 1862 
Q 2688 1190 2304 678 
Q 1741 -70 992 -70 
Q 608 -70 390 224 
Q 173 518 173 1030 
Q 173 1997 592 2813 
Q 1011 3629 1594 4070 
Q 1952 4339 2374 4339 
Q 2733 4339 2947 4076 
Q 3162 3814 3162 3270 
z
M 941 2221 
L 2432 2221 
Q 2624 2874 2624 3533 
Q 2624 4205 2285 4205 
Q 2029 4205 1728 3814 
Q 1427 3424 1232 2992 
Q 1037 2560 941 2221 
z
M 2387 2016 
L 896 2016 
Q 710 1530 710 960 
Q 710 64 1069 64 
Q 1286 64 1510 275 
Q 1734 486 1904 806 
Q 2074 1126 2198 1440 
Q 2323 1754 2387 2016 
z
" transform="scale(0.015625)"/>
     </defs>
     <use xlink:href="#Newsreader16pt-Regular-73" transform="translate(0 0.40625)"/>
     <use xlink:href="#Newsreader16pt-Regular-6c" transform="translate(44.550003 0.40625)"/>
     <use xlink:href="#Newsreader16pt-Regular-6f" transform="translate(73.949997 0.40625)"/>
     <use xlink:href="#Newsreader16pt-Regular-70" transform="translate(130.850006 0.40625)"/>
     <use xlink:href="#Newsreader16pt-Regular-65" transform="translate(192.000015 0.40625)"/>
     <use xlink:href="#Newsreader16pt-Regular-20" transform="translate(242.600021 0.40625)"/>
     <use xlink:href="#STIXGeneral-Regular-2212" transform="translate(266.950027 0.40625)"/>
     <use xlink:href="#STIXGeneral-Regular-31" transform="translate(335.450012 0.40625)"/>
     <use xlink:href="#STIXGeneral-Regular-2f" transform="translate(385.449997 0.40625)"/>
     <use xlink:href="#STIXGeneral-Italic-3b8" transform="translate(413.249985 0.40625)"/>
    </g>
   </g>
   <g id="patch_21">
    <path d="M 316.865211 322.278275 
Q 316.865211 309.511736 316.865211 296.745197 
" style="fill: none; stroke: #222222; stroke-width: 0.9; stroke-linecap: round"/>
    <path d="M 319.025211 317.958275 
L 316.865211 322.278275 
L 314.705211 317.958275 
" style="fill: none; stroke: #222222; stroke-width: 0.9; stroke-linecap: round"/>
    <path d="M 314.705211 301.065197 
L 316.865211 296.745197 
L 319.025211 301.065197 
" style="fill: none; stroke: #222222; stroke-width: 0.9; stroke-linecap: round"/>
   </g>
   <g id="text_24">
    <!-- markup $\kappa$ -->
    <g style="fill: #e4e4ea" transform="translate(275.639725 311.626922) scale(0.0864 -0.0864)">
     <defs>
      <path id="Newsreader16pt-Regular-6b" d="M 1949 1651 
L 2010 1850 
L 3338 362 
L 3754 214 
L 3754 0 
L 2477 0 
L 2477 214 
L 2662 333 
L 1632 1494 
L 1101 1494 
L 1101 1859 
L 1741 1859 
L 2570 2666 
L 2125 2787 
L 2125 3002 
L 3520 3002 
L 3520 2787 
L 3088 2672 
L 1949 1651 
z
M 1210 355 
L 1712 214 
L 1712 0 
L 150 0 
L 150 214 
L 659 355 
L 659 3962 
Q 618 3994 525 4040 
Q 432 4086 310 4139 
Q 189 4192 64 4240 
L 64 4400 
L 1158 4646 
L 1258 4646 
L 1210 4061 
L 1210 355 
z
" transform="scale(0.015625)"/>
      <path id="STIXGeneral-Italic-3ba" d="M 979 1440 
L 998 1446 
Q 1850 2541 2464 2790 
Q 2547 2822 2630 2822 
Q 2797 2822 2886 2736 
Q 2976 2650 2976 2522 
Q 2976 2387 2893 2307 
Q 2810 2227 2682 2227 
Q 2605 2227 2502 2288 
Q 2400 2349 2336 2349 
Q 2170 2349 1990 2205 
Q 1811 2061 1414 1645 
L 2042 544 
Q 2202 262 2310 182 
Q 2419 102 2624 102 
L 2624 0 
Q 2374 -83 2182 -83 
Q 1786 -83 1555 326 
L 960 1350 
L 576 0 
L 90 0 
L 640 1978 
Q 730 2317 730 2406 
Q 730 2560 518 2560 
L 339 2560 
L 339 2650 
Q 678 2694 1306 2822 
L 1325 2803 
L 979 1440 
z
" transform="scale(0.015625)"/>
     </defs>
     <use xlink:href="#Newsreader16pt-Regular-6d" transform="translate(0 0.40625)"/>
     <use xlink:href="#Newsreader16pt-Regular-61" transform="translate(90.450012 0.40625)"/>
     <use xlink:href="#Newsreader16pt-Regular-72" transform="translate(141.900024 0.40625)"/>
     <use xlink:href="#Newsreader16pt-Regular-6b" transform="translate(184.600021 0.40625)"/>
     <use xlink:href="#Newsreader16pt-Regular-75" transform="translate(243.600021 0.40625)"/>
     <use xlink:href="#Newsreader16pt-Regular-70" transform="translate(302.300034 0.40625)"/>
     <use xlink:href="#Newsreader16pt-Regular-20" transform="translate(363.450043 0.40625)"/>
     <use xlink:href="#STIXGeneral-Italic-3ba" transform="translate(387.800049 0.40625)"/>
    </g>
   </g>
   <g id="text_25">
    <!-- unit cost -->
    <g style="fill: #797984" transform="translate(26.979496 333.658243) scale(0.0864 -0.0864)">
     <use xlink:href="#Newsreader16pt-Regular-75"/>
     <use xlink:href="#Newsreader16pt-Regular-6e" x="58.700012"/>
     <use xlink:href="#Newsreader16pt-Regular-69" x="121.000015"/>
     <use xlink:href="#Newsreader16pt-Regular-74" x="151.650009"/>
     <use xlink:href="#Newsreader16pt-Regular-20" x="189.800018"/>
     <use xlink:href="#Newsreader16pt-Regular-63" x="214.150024"/>
     <use xlink:href="#Newsreader16pt-Regular-6f" x="262.300034"/>
     <use xlink:href="#Newsreader16pt-Regular-73" x="319.200043"/>
     <use xlink:href="#Newsreader16pt-Regular-74" x="363.750046"/>
    </g>
   </g>
   <g id="text_26">
    <!-- firm $v$'s household market at date $t$ -->
    <g style="fill: #e4e4ea" transform="translate(93.690925 196.254) scale(0.108 -0.108)">
     <defs>
      <path id="Newsreader16pt-Regular-27" d="M 509 2816 
L 365 4266 
L 365 4406 
L 1018 4406 
L 1018 4266 
L 870 2816 
L 509 2816 
z
" transform="scale(0.015625)"/>
     </defs>
     <use xlink:href="#Newsreader16pt-Regular-66" transform="translate(0 0.40625)"/>
     <use xlink:href="#Newsreader16pt-Regular-69" transform="translate(38.699997 0.40625)"/>
     <use xlink:href="#Newsreader16pt-Regular-72" transform="translate(69.349991 0.40625)"/>
     <use xlink:href="#Newsreader16pt-Regular-6d" transform="translate(112.049988 0.40625)"/>
     <use xlink:href="#Newsreader16pt-Regular-20" transform="translate(202.5 0.40625)"/>
     <use xlink:href="#STIXGeneral-Italic-76" transform="translate(226.850006 0.40625)"/>
     <use xlink:href="#Newsreader16pt-Regular-27" transform="translate(271.25 0.40625)"/>
     <use xlink:href="#Newsreader16pt-Regular-73" transform="translate(292.850006 0.40625)"/>
     <use xlink:href="#Newsreader16pt-Regular-20" transform="translate(337.400009 0.40625)"/>
     <use xlink:href="#Newsreader16pt-Regular-68" transform="translate(361.750015 0.40625)"/>
     <use xlink:href="#Newsreader16pt-Regular-6f" transform="translate(422.800018 0.40625)"/>
     <use xlink:href="#Newsreader16pt-Regular-75" transform="translate(479.700027 0.40625)"/>
     <use xlink:href="#Newsreader16pt-Regular-73" transform="translate(538.40004 0.40625)"/>
     <use xlink:href="#Newsreader16pt-Regular-65" transform="translate(582.950043 0.40625)"/>
     <use xlink:href="#Newsreader16pt-Regular-68" transform="translate(633.550049 0.40625)"/>
     <use xlink:href="#Newsreader16pt-Regular-6f" transform="translate(694.600052 0.40625)"/>
     <use xlink:href="#Newsreader16pt-Regular-6c" transform="translate(751.500061 0.40625)"/>
     <use xlink:href="#Newsreader16pt-Regular-64" transform="translate(780.900055 0.40625)"/>
     <use xlink:href="#Newsreader16pt-Regular-20" transform="translate(841.450058 0.40625)"/>
     <use xlink:href="#Newsreader16pt-Regular-6d" transform="translate(865.800064 0.40625)"/>
     <use xlink:href="#Newsreader16pt-Regular-61" transform="translate(956.250076 0.40625)"/>
     <use xlink:href="#Newsreader16pt-Regular-72" transform="translate(1007.700089 0.40625)"/>
     <use xlink:href="#Newsreader16pt-Regular-6b" transform="translate(1050.400085 0.40625)"/>
     <use xlink:href="#Newsreader16pt-Regular-65" transform="translate(1109.400085 0.40625)"/>
     <use xlink:href="#Newsreader16pt-Regular-74" transform="translate(1160.000092 0.40625)"/>
     <use xlink:href="#Newsreader16pt-Regular-20" transform="translate(1198.150101 0.40625)"/>
     <use xlink:href="#Newsreader16pt-Regular-61" transform="translate(1222.500107 0.40625)"/>
     <use xlink:href="#Newsreader16pt-Regular-74" transform="translate(1273.950119 0.40625)"/>
     <use xlink:href="#Newsreader16pt-Regular-20" transform="translate(1312.100128 0.40625)"/>
     <use xlink:href="#Newsreader16pt-Regular-64" transform="translate(1336.450134 0.40625)"/>
     <use xlink:href="#Newsreader16pt-Regular-61" transform="translate(1397.000137 0.40625)"/>
     <use xlink:href="#Newsreader16pt-Regular-74" transform="translate(1448.45015 0.40625)"/>
     <use xlink:href="#Newsreader16pt-Regular-65" transform="translate(1486.600159 0.40625)"/>
     <use xlink:href="#Newsreader16pt-Regular-20" transform="translate(1537.200165 0.40625)"/>
     <use xlink:href="#STIXGeneral-Italic-74" transform="translate(1561.550171 0.40625)"/>
    </g>
   </g>
  </g>
 </g>
 <defs>
  <clipPath id="p089677fe16">
   <rect x="19.350925" y="16.764" width="320.4" height="154.575"/>
  </clipPath>
  <clipPath id="pec993be548">
   <rect x="19.350925" y="202.254" width="320.4" height="154.575"/>
  </clipPath>
 </defs>
</svg>
